<svg width="166" height="72" viewBox="0 0 166 72" fill="none" xmlns="http://www.w3.org/2000/svg" class="block w-auto"><path d="M28.7914 40.583H33.2909C36.4799 40.583 38.4245 42.1586 38.4245 44.7372C38.4245 45.9816 37.8567 47.0556 36.7874 47.7511C38.4056 48.4703 39.2998 49.7809 39.2998 51.3801C39.2998 54.1764 37.1376 55.8797 33.6174 55.8797H28.7866V40.583H28.7914ZM31.8952 43.1616V46.6156H33.3572C34.5353 46.6156 35.2355 45.9816 35.2355 44.8649C35.2355 43.7483 34.5353 43.1616 33.3572 43.1616H31.8952ZM31.8952 49.1942V53.3011H33.7972C35.2403 53.3011 36.1156 52.5346 36.1156 51.2476C36.1156 49.9607 35.2403 49.1942 33.7972 49.1942H31.8952Z" fill="#000091"></path><path d="M42.7109 40.5833H51.6249V43.1619H45.81V46.7909H50.7496V49.3696H45.81V53.3014H51.6249V55.88H42.7109V40.5833ZM45.7248 39.2727L48.1946 36.3203H51.3836L48.5448 39.2727H45.7248Z" fill="#000091"></path><path d="M55.4482 40.583H59.4274L66.269 51.6403V40.583H69.3728V55.8797H65.3937L58.5521 44.8224V55.8797H55.4482V40.583Z" fill="#000091"></path><path d="M73.8677 40.5833H82.7817V43.1619H76.9668V46.7909H81.9064V49.3696H76.9668V53.3014H82.7817V55.88H73.8677V40.5833ZM76.8863 39.2727L79.3561 36.3203H82.5451L79.7062 39.2727H76.8863Z" fill="#000091"></path><path d="M88.0525 40.583L92.5758 52.5393L97.099 40.583H100.397L94.6055 55.8797H90.5413L84.75 40.583H88.0478H88.0525Z" fill="#000091"></path><path d="M117.553 48.2335C117.553 52.6053 114.255 56.3194 109.443 56.3194C104.631 56.3194 101.314 52.6053 101.314 48.2335C101.314 43.8616 104.612 40.1475 109.443 40.1475C114.274 40.1475 117.553 43.8616 117.553 48.2335ZM114.359 48.2335C114.359 45.3047 112.306 43.0526 109.443 43.0526C106.581 43.0526 104.503 45.3047 104.503 48.2335C104.503 51.1622 106.557 53.4144 109.443 53.4144C112.329 53.4144 114.359 51.1622 114.359 48.2335Z" fill="#000091"></path><path d="M120.742 40.583H123.846V53.0598H129.66V55.8797H120.746V40.583H120.742Z" fill="#000091"></path><path d="M137.127 40.583H141.191L146.982 55.8797H143.684L142.222 51.9006H136.105L134.643 55.8797H131.345L137.136 40.583H137.127ZM141.257 49.2604L139.161 43.5118L137.065 49.2604H141.262H141.257Z" fill="#000091"></path><path d="M146.457 40.583H159V43.4029H154.278V55.8797H151.174V43.4029H146.452V40.583H146.457Z" fill="#000091"></path><path d="M28.9805 16.1445H39.8485V19.8398H33.4611V22.9341H38.8455V26.6294H33.4611V33.7454H28.9852V16.1445H28.9805Z" fill="#000091"></path><path d="M43.0137 16.1445H48.9232C53.049 16.1445 55.5898 18.1838 55.5898 21.6282C55.5898 23.7668 54.582 25.3755 52.8219 26.2792L58.2063 33.7501H52.9733L48.5447 27.0836H47.4896V33.7501H43.0137V16.1445ZM47.4896 19.8398V23.3883H49.1976C50.3284 23.3883 50.9814 22.6597 50.9814 21.5762C50.9814 20.5684 50.3284 19.8398 49.1976 19.8398H47.4896Z" fill="#000091"></path><path d="M60.3687 16.1445H71.2367V19.8398H64.8493V22.9341H70.2337V26.6294H64.8493V30.0502H71.2367V33.7454H60.3687V16.1445Z" fill="#000091"></path><path d="M76.8673 28.2954C77.7994 29.5255 79.181 30.3346 80.4632 30.3346C81.4947 30.3346 82.1239 29.8804 82.1239 28.8773C82.1239 26.1852 74.3786 27.0652 74.3786 21.0279C74.3786 18.085 76.8437 15.6436 80.4159 15.6436C83.2074 15.6436 85.3697 16.8501 87.0068 18.6622L83.761 21.6288C82.7296 20.4223 81.6224 19.5422 80.4396 19.5422C79.5359 19.5422 78.9066 20.0958 78.9066 20.8245C78.9066 23.4409 86.6519 22.5609 86.6519 28.7212C86.5999 32.2414 83.8367 34.2569 80.5153 34.2569C77.1938 34.2569 75.235 33.1261 73.6216 31.2903L76.8673 28.2954Z" fill="#000091"></path><path d="M108.511 34.4036C108.861 34.4036 109.391 34.3516 109.793 34.2002V37.9238C109.112 38.1982 108.587 38.326 107.707 38.326C105.545 38.326 103.657 37.4223 101.92 35.8609L99.9331 34.0772C99.3274 34.2049 98.6745 34.2522 97.9979 34.2522C92.3865 34.2522 88.5635 29.975 88.5635 24.9455C88.5635 19.916 92.3865 15.6436 97.9979 15.6436C103.609 15.6436 107.404 19.9208 107.404 24.9503C107.404 27.7418 106.221 30.2826 104.234 32.019L105.015 32.7713C106.273 33.9778 107.38 34.4084 108.511 34.4084V34.4036ZM102.8 24.9503C102.8 21.9837 100.789 19.8451 97.9979 19.8451C95.2064 19.8451 93.1671 22.0073 93.1671 24.9503C93.1671 27.8932 95.178 30.0554 97.9979 30.0554C100.818 30.0554 102.8 27.8932 102.8 24.9503Z" fill="#000091"></path><path d="M120.756 16.1445H125.232V26.6814C125.232 31.3608 122.516 34.2517 117.86 34.2517C113.205 34.2517 110.517 31.3608 110.517 26.6814V16.1445H114.993V27.112C114.993 28.9241 116.024 30.0549 117.884 30.0549C119.743 30.0549 120.751 28.9241 120.751 27.112V16.1445H120.756Z" fill="#000091"></path><path d="M129.608 16.1445H140.476V19.8398H134.089V22.9341H139.473V26.6294H134.089V30.0502H140.476V33.7454H129.608V16.1445Z" fill="#000091"></path><path d="M147.718 26.6675C148.729 26.6675 149.519 27.0598 150.127 27.7449V23.6289H151.271V33.7116H150.127V32.905C149.519 33.5901 148.729 33.9824 147.718 33.9824C145.591 33.9824 144.238 32.3028 144.238 30.325C144.238 28.3471 145.597 26.6675 147.718 26.6675ZM147.851 32.905C148.79 32.905 149.624 32.4465 150.122 31.6564V28.9935C149.597 28.1869 148.779 27.7449 147.851 27.7449C146.415 27.7449 145.442 28.8885 145.442 30.325C145.442 31.7614 146.409 32.905 147.851 32.905Z" fill="#000091"></path><path d="M157.857 26.9395H159V30.7737C159 32.8068 157.829 33.9891 155.989 33.9891C154.149 33.9891 152.989 32.8068 152.989 30.7737V26.9395H154.133V30.8123C154.133 32.1438 154.846 32.9118 156 32.9118C157.155 32.9118 157.857 32.1438 157.857 30.8123V26.9395Z" fill="#000091"></path><path d="M16.2485 43.0198L5.55081 48.9009C5.04454 49.1801 4.53828 49.4592 4.03202 49.7336C3.49264 50.0317 3.32231 50.9165 3.82384 51.3376C6.29837 53.4052 8.7729 55.4918 11.3752 57.4033C11.5597 57.5357 11.7821 57.5689 11.9997 57.5357C12.0376 57.5357 12.0707 57.5215 12.1085 57.5121C12.1275 57.5121 12.1417 57.5026 12.1559 57.4979C12.2032 57.4837 12.2505 57.4648 12.2931 57.4458C12.3167 57.4364 12.3404 57.4222 12.364 57.4127C12.3782 57.4033 12.3877 57.3985 12.4019 57.3891C12.5533 57.2992 12.6858 57.1809 12.7709 57.0389C12.8183 56.9632 12.8466 56.8828 12.8703 56.8024C12.8703 56.8024 12.8703 56.7976 12.875 56.7929C14.5783 52.6198 16.1586 48.3899 17.7484 44.1695C18.0796 43.2942 16.9724 42.6176 16.2485 43.015V43.0198Z" fill="#5EC988"></path><path d="M14.5025 38.0657C14.5545 38.0515 14.5971 38.0278 14.6444 38.0042C14.6586 37.9994 14.6728 37.99 14.687 37.9853C14.706 37.9758 14.7249 37.9663 14.7391 37.9569C14.881 37.8764 15.0088 37.7629 15.1081 37.5973C15.34 37.1998 15.2595 36.528 14.8384 36.2583C14.7201 36.1542 14.5735 36.0832 14.4079 36.0548L3.17076 31.2477L1.51476 30.538C0.653645 30.169 -0.117576 30.7698 0.0149033 31.6925C0.469119 34.8105 0.923335 37.9285 1.37755 41.0465C1.45325 41.5811 2.15824 41.9076 2.63138 41.7609C6.09004 40.6822 9.54871 39.6081 13.0074 38.5294C13.5042 38.3732 14.001 38.2218 14.4978 38.0657H14.5025Z" fill="#6B93F6"></path><path d="M14.4554 30.4341C14.8717 30.7605 15.2881 31.087 15.7045 31.4135C15.8843 31.65 16.154 31.7541 16.4331 31.7541C16.7123 31.7872 17.0009 31.7115 17.2327 31.4797C17.3273 31.3851 17.403 31.2573 17.4504 31.1249C17.4598 31.1059 17.4646 31.0775 17.4693 31.0586C17.4787 31.0255 17.4929 30.9924 17.4977 30.9593C17.5071 30.9261 17.5071 30.8883 17.5119 30.8504C17.5308 30.6801 17.5166 30.505 17.4551 30.3536C16.4331 26.0906 15.4158 21.8276 14.3939 17.5646C14.2472 16.9543 14.1005 16.3439 13.9538 15.7336C13.7693 14.9529 12.7899 14.7825 12.2458 15.2841L5.18653 21.7472C4.81274 22.0878 4.76543 22.8591 5.18653 23.1903C8.27141 25.608 11.3563 28.021 14.4364 30.4388L14.4554 30.4341Z" fill="#F4BE30"></path></svg>