<?xml version="1.0" encoding="utf-8"?>
<!-- Generator: Adobe Illustrator 25.2.0, SVG Export Plug-In . SVG Version: 6.00 Build 0)  -->
<svg version="1.1" id="Calque_1" xmlns="http://www.w3.org/2000/svg" xmlns:xlink="http://www.w3.org/1999/xlink" x="0px" y="0px"
	 viewBox="0 0 1643 335" style="enable-background:new 0 0 1643 335;" xml:space="preserve">
<style type="text/css">
	.st0{fill:#FFFFFF;}
</style>
<g>
	<path class="st0" d="M461,189.1c3.7,0,4.1,1.9,4.1,4.5v1.1c0,3.5,0,7-5.2,7h-19.7c-5.2,0-5.2-3.5-5.2-7v-48c0-3.5,0-7,5.2-7h4.4
		c5.2,0,5.2,3.5,5.2,7v37.6c0,2.1,0,4.8,2.7,4.9C457.1,189.2,459.1,189.1,461,189.1z"/>
	<path class="st0" d="M519.6,197.4c0,4-2.7,4.4-7.7,4.4h-4.6c-5.4,0-2.7-13.1-6.2-13.1h-7c-3.5,0-1.5,13.1-6.7,13.1h-4.1
		c-4.5,0-7.2-0.4-7.2-4.4c0-5.2,2.1-9.9,8.9-50.6c0.7-4.4,2.4-7,5.9-7h13.4c3.5,0,5.2,2.6,6.1,7
		C516.3,182.5,519.6,192.1,519.6,197.4z M494.2,174.2c0,1.4,0.6,1.4,3.4,1.4c2.7,0,3.4,0,3.4-1.3c0-0.3,0-0.8-0.1-1.4
		c-1-8.5-1.4-19.1-3.3-19.1c-1.8,0-2.4,10.5-3.3,19.1C494.2,173.4,494.2,173.8,494.2,174.2z"/>
	<path class="st0" d="M573.5,158.6c0,4.2,0,5.6,3.8,5.6c3.7,0,4.5-0.2,6-0.2c5,0,5.1,0.8,5.1,4.7v0.8c0,6.3,0,7.1-5.9,7.1
		c-1.7,0-4.8-0.2-6.1-0.2c-2.9,0-3,0.6-3,5.1v13.3c0,3.5,0,7-5.2,7h-4.4c-5.2,0-5.2-3.5-5.2-7v-48c0-2.6,0-7,5.2-7h21.6
		c2.2,0,4.1,0.9,4.1,2.6v7.4c0,1.7-0.7,2.2-3.8,2.2c-2.2,0-2.8-0.2-6.9-0.2C573.5,151.8,573.5,153.4,573.5,158.6z"/>
	<path class="st0" d="M623.5,139.8c13,0,16.7,9.3,16.7,19.6c0,6.3-0.1,10.3-5.1,14.5c-2.4,2.1-4,0.9-4,4.2c0,3.6,1.1,7.9,4,7.9
		c1.6,0,2.5-0.4,2.8-0.4c2.8,0,3.2,2.4,3.2,6.4c0,1.9-0.1,4.3-0.1,6.9c0,1.7-0.7,3.3-5.2,3.3c-8,0-12.1-5.9-13.8-12.4
		c-2.1-8.1-4.7-9.5-5.2-9.5c-0.7,0-0.7,1.4-0.7,2.1v12.4c0,3.5,0,7-5.2,7h-6.1c-3.5,0-3.5-3.5-3.5-7v-48c0-3.5,0-7,5.2-7H623.5z
		 M616,155.3c0,1.1,0.1,3.1,0.1,5c0,1.7-0.1,3.3-0.1,4.4c0,2.9,0.5,3.4,4,3.4c3.9,0,4.8-3.8,4.8-7.8c0-3.9-0.9-8.7-4.8-8.7
		C616.5,151.6,616,152.2,616,155.3z"/>
	<path class="st0" d="M668,185.8c0.2,1.9,1.9,2.9,3.7,2.9c5,0,6.6-0.2,8.5-0.2c3.7,0,4.8,1,4.8,3.7v6.1c0,2.6-0.9,3.5-3.5,3.5h-23
		c-5.2,0-5.2-5.2-5.2-7v-48c0-3.5,0-7,5.2-7H681c2.2,0,4.1,0.9,4.1,2.6v7.4c0,2.1-1.7,2.2-3.9,2.2c-3.4,0-6.1-0.2-8.3-0.2
		c-4.8,0-4.8,1.7-4.8,4.5c0,5.7,0,7.1,4.4,7.1c5.4,0,6.3-0.2,8.3-0.2c3.1,0,3.2,3.1,3.2,4v5.6c0,2.6-1.8,2.8-4,2.8
		c-4.4,0-7.2-0.2-9.1-0.2c-2.8,0-2.8,1.2-2.8,4.1v6.3H668z"/>
	<path class="st0" d="M715.7,139.4c7.2,0,12.1,1.3,12.1,3.7v6.7c0,1-0.3,2.6-3.3,2.6h-0.7c-1.4,0-4.5-1-7.1-1
		c-2.1,0-3.7,0.7-3.7,3.5c0,2.7,0.8,4.1,4.2,6.9c10.4,8.5,12.5,14.6,12.5,21.7c0,4-0.1,7.7-2.4,11.1c-2.9,4.4-7.4,6-9.3,6.5
		c-2.4,0.6-5.7,1-8.4,1c-6.5,0-12.7-1.2-12.7-4.7v-6.7c0-1,0.9-2.1,3.2-2.1s4.2,1.3,9.2,1.3c2.4,0,5.8-1.9,5.8-4.6
		c0-2-0.1-3.5-5.4-8.7c-8.1-7.9-11.9-11.6-11.9-18.7C697.6,140.7,708.7,139.4,715.7,139.4z"/>
	<path class="st0" d="M761.4,202.2c-18.3,0-19.6-10.2-19.6-16.7v-22.8c0-1.3-0.1-2.8-0.1-4.2c0-9,1.3-19.2,19.8-19.2
		c17.4,0,18.7,10,18.7,20.1c0,5.3,0.1,10.6,0.1,16.4c0,5.2-0.4,9.9-2.4,11.9c-0.4,0.4-0.4,0.9-0.4,1c0,0.9,0.3,1,1,1
		c0.5,0,1.1-0.1,1.7-0.1c1,0,1.7,0.3,1.7,1.7c0,1.9-0.1,3.1-0.1,4.6c0,1.1,0.1,2.4,0.1,3.7c0,1.5-1,2.2-2.4,2.2
		c-7.2,0-7-3.2-8.6-3.2C768.9,199,767.6,202.2,761.4,202.2z M765.3,185.1v-29.2c0-2.2,0-4.4-4.4-4.4s-4.4,2.2-4.4,4.4v29.2
		c0,2.6,0,4.8,4.4,4.8C765.3,189.9,765.3,187.8,765.3,185.1z"/>
	<path class="st0" d="M832.2,184c0,10.8-1.2,18.1-18.7,18.1c-18.4,0-19.7-7.4-19.7-18.7c0-27.6,0.1-36.6,0.1-36.6c0-3.5,0-7,5.2-7
		h4.4c5.2,0,5.2,3.5,5.2,7v38.4c0,2.6,0,4.8,4.8,4.8c3.9,0,3.9-2.2,3.9-4.8v-38.5c0-3.4,0-6.9,5.2-6.9h4.4c5.2,0,5.2,3.5,5.2,6.9
		L832.2,184L832.2,184z"/>
	<path class="st0" d="M859.5,185.8c0.2,1.9,1.9,2.9,3.7,2.9c5,0,6.6-0.2,8.5-0.2c3.7,0,4.8,1,4.8,3.7v6.1c0,2.6-0.9,3.5-3.5,3.5h-23
		c-5.2,0-5.2-5.2-5.2-7v-48c0-3.5,0-7,5.2-7h22.5c2.2,0,4.1,0.9,4.1,2.6v7.4c0,2.1-1.7,2.2-3.9,2.2c-3.4,0-6.1-0.2-8.3-0.2
		c-4.8,0-4.8,1.7-4.8,4.5c0,5.7,0,7.1,4.4,7.1c5.4,0,6.3-0.2,8.3-0.2c3.1,0,3.2,3.1,3.2,4v5.6c0,2.6-1.8,2.8-4,2.8
		c-4.4,0-7.2-0.2-9.1-0.2c-2.8,0-2.8,1.2-2.8,4.1v6.3H859.5z"/>
	<path class="st0" d="M934.4,139.8c19.2,0,21.8,12.2,21.8,31c0,17.9-1.7,31-21.8,31h-13.1c-5.2,0-5.2-3.5-5.2-7v-48c0-3.5,0-7,5.2-7
		H934.4z M930.9,154.3c0,9.9,0.1,20.6,0.1,30.9c0,2.3,0.2,4.4,1.7,4.4c6.5,0,7-5.2,7-19.2c0-12.2-0.4-18.7-7-18.7
		C931.1,151.6,930.9,152.4,930.9,154.3z"/>
	<path class="st0" d="M983.4,185.8c0.2,1.9,1.9,2.9,3.7,2.9c5,0,6.6-0.2,8.5-0.2c3.7,0,4.8,1,4.8,3.7v6.1c0,2.6-0.9,3.5-3.5,3.5h-23
		c-5.2,0-5.2-5.2-5.2-7v-48c0-3.5,0-7,5.2-7h22.5c2.2,0,4.1,0.9,4.1,2.6v7.4c0,2.1-1.7,2.2-3.9,2.2c-3.4,0-6.1-0.2-8.3-0.2
		c-4.8,0-4.8,1.7-4.8,4.5c0,5.7,0,7.1,4.4,7.1c5.4,0,6.3-0.2,8.3-0.2c3.1,0,3.2,3.1,3.2,4v5.6c0,2.6-1.8,2.8-4,2.8
		c-4.4,0-7.2-0.2-9.1-0.2c-2.8,0-2.8,1.2-2.8,4.1v6.3H983.4z"/>
	<path class="st0" d="M1066.1,189.1c3.7,0,4.1,1.9,4.1,4.5v1.1c0,3.5,0,7-5.2,7h-19.7c-5.2,0-5.2-3.5-5.2-7v-48c0-3.5,0-7,5.2-7h4.4
		c5.2,0,5.2,3.5,5.2,7v37.6c0,2.1,0,4.8,2.7,4.9C1062.2,189.2,1064.3,189.1,1066.1,189.1z"/>
	<path class="st0" d="M1124.7,197.4c0,4-2.7,4.4-7.7,4.4h-4.6c-5.4,0-2.7-13.1-6.2-13.1h-7c-3.5,0-1.5,13.1-6.7,13.1h-4.1
		c-4.5,0-7.2-0.4-7.2-4.4c0-5.2,2.1-9.9,8.9-50.6c0.7-4.4,2.4-7,5.9-7h13.4c3.5,0,5.2,2.6,6.1,7
		C1121.5,182.5,1124.7,192.1,1124.7,197.4z M1099.3,174.2c0,1.4,0.6,1.4,3.4,1.4c2.7,0,3.4,0,3.4-1.3c0-0.3,0-0.8-0.1-1.4
		c-1-8.5-1.4-19.1-3.3-19.1c-1.8,0-2.4,10.5-3.3,19.1C1099.3,173.4,1099.3,173.8,1099.3,174.2z"/>
	<path class="st0" d="M1182.1,139.8c19.2,0,21.8,12.2,21.8,31c0,17.9-1.7,31-21.8,31H1169c-5.2,0-5.2-3.5-5.2-7v-48c0-3.5,0-7,5.2-7
		H1182.1z M1178.5,154.3c0,9.9,0.1,20.6,0.1,30.9c0,2.3,0.2,4.4,1.7,4.4c6.5,0,7-5.2,7-19.2c0-12.2-0.4-18.7-7-18.7
		C1178.8,151.6,1178.5,152.4,1178.5,154.3z"/>
	<path class="st0" d="M1231.1,194.7c0,3.5,0,7-5.2,7h-4.4c-5.2,0-5.2-3.5-5.2-7v-48c0-3.5,0-7,5.2-7h4.4c5.2,0,5.2,3.5,5.2,7V194.7z
		"/>
	<path class="st0" d="M1275.4,139.7h3.4c3.7,0,5.9,0.4,5.9,3.9c0,2.7-2.4,13.1-9.6,51.1c-0.9,4.4-2.6,7-6.1,7h-10.9
		c-3.5,0-5.2-2.6-6-7c-6.6-38-9.1-48.4-9.1-51.1c0-3.7,2.2-4,6.4-4h3.7c4.6,0,5.6,1.5,7.1,15.3c2.5,22.9,2.7,31.5,4.2,31.5
		c1,0,1.6-8.5,2.9-18.2C1270.6,141.7,1269.7,139.7,1275.4,139.7z"/>
	<path class="st0" d="M1311.5,185.8c0.2,1.9,1.9,2.9,3.7,2.9c5,0,6.6-0.2,8.5-0.2c3.7,0,4.8,1,4.8,3.7v6.1c0,2.6-0.9,3.5-3.5,3.5
		h-23c-5.2,0-5.2-5.2-5.2-7v-48c0-3.5,0-7,5.2-7h22.5c2.2,0,4.1,0.9,4.1,2.6v7.4c0,2.1-1.7,2.2-3.9,2.2c-3.4,0-6.1-0.2-8.3-0.2
		c-4.8,0-4.8,1.7-4.8,4.5c0,5.7,0,7.1,4.4,7.1c5.4,0,6.3-0.2,8.3-0.2c3.1,0,3.2,3.1,3.2,4v5.6c0,2.6-1.8,2.8-4,2.8
		c-4.4,0-7.2-0.2-9.1-0.2c-2.8,0-2.8,1.2-2.8,4.1L1311.5,185.8L1311.5,185.8z"/>
	<path class="st0" d="M1363.3,139.8c13,0,16.7,9.3,16.7,19.6c0,6.3-0.1,10.3-5.1,14.5c-2.4,2.1-4,0.9-4,4.2c0,3.6,1.1,7.9,4,7.9
		c1.6,0,2.5-0.4,2.8-0.4c2.8,0,3.2,2.4,3.2,6.4c0,1.9-0.1,4.3-0.1,6.9c0,1.7-0.7,3.3-5.2,3.3c-8,0-12.1-5.9-13.8-12.4
		c-2.1-8.1-4.7-9.5-5.2-9.5c-0.7,0-0.7,1.4-0.7,2.1v12.4c0,3.5,0,7-5.2,7h-6.1c-3.5,0-3.5-3.5-3.5-7v-48c0-3.5,0-7,5.2-7H1363.3z
		 M1355.8,155.3c0,1.1,0.1,3.1,0.1,5c0,1.7-0.1,3.3-0.1,4.4c0,2.9,0.5,3.4,4,3.4c3.9,0,4.8-3.8,4.8-7.8c0-3.9-0.9-8.7-4.8-8.7
		C1356.4,151.6,1355.8,152.2,1355.8,155.3z"/>
	<path class="st0" d="M1411.1,139.4c7.2,0,12.1,1.3,12.1,3.7v6.7c0,1-0.4,2.6-3.3,2.6h-0.7c-1.4,0-4.5-1-7.1-1
		c-2.1,0-3.8,0.7-3.8,3.5c0,2.7,0.8,4.1,4.2,6.9c10.4,8.5,12.5,14.6,12.5,21.7c0,4-0.1,7.7-2.4,11.1c-2.9,4.4-7.4,6-9.3,6.5
		c-2.4,0.6-5.7,1-8.4,1c-6.5,0-12.7-1.2-12.7-4.7v-6.7c0-1,0.9-2.1,3.2-2.1c2.3,0,4.2,1.3,9.2,1.3c2.4,0,5.8-1.9,5.8-4.6
		c0-2-0.1-3.5-5.4-8.7c-8.1-7.9-11.9-11.6-11.9-18.7C1393.1,140.7,1404.1,139.4,1411.1,139.4z"/>
	<path class="st0" d="M1451.8,194.7c0,3.5,0,7-5.2,7h-4.4c-5.2,0-5.2-3.5-5.2-7v-48c0-3.5,0-7,5.2-7h4.4c5.2,0,5.2,3.5,5.2,7V194.7z
		"/>
	<path class="st0" d="M1487.3,195.3c-0.2,3.3-0.3,6.4-5.2,6.4h-4.4c-5.2,0-5.2-3.5-5.2-7v-39.9c0-2.2-0.4-2.7-2.3-2.7
		c-0.6,0-1.5,0.1-2.5,0.1c-2.2,0-3.9-0.4-3.9-2.4v-7.4c0-1.7,1.9-2.6,4.1-2.6h24.1c2.2,0,4.1,0.9,4.1,2.6v7.4c0,2.1-1.7,2.4-3.9,2.4
		c-0.6,0-1.4-0.1-2.4-0.1c-2.2,0-2.4,0.5-2.4,2.7L1487.3,195.3L1487.3,195.3z"/>
	<path class="st0" d="M1522.7,185.8c0.2,1.9,1.9,2.9,3.7,2.9c5,0,6.6-0.2,8.5-0.2c3.7,0,4.8,1,4.8,3.7v6.1c0,2.6-0.9,3.5-3.5,3.5
		h-23c-5.2,0-5.2-5.2-5.2-7v-48c0-3.5,0-7,5.2-7h22.5c2.2,0,4.1,0.9,4.1,2.6v7.4c0,2.1-1.7,2.2-3.9,2.2c-3.4,0-6.1-0.2-8.3-0.2
		c-4.8,0-4.8,1.7-4.8,4.5c0,5.7,0,7.1,4.4,7.1c5.4,0,6.3-0.2,8.3-0.2c3.1,0,3.2,3.1,3.2,4v5.6c0,2.6-1.8,2.8-4,2.8
		c-4.4,0-7.2-0.2-9.1-0.2c-2.8,0-2.8,1.2-2.8,4.1L1522.7,185.8L1522.7,185.8z M1529.4,134.9c-1.5,1.6-3.1,2.8-6.5,2.8
		c-4.5,0-5.1-0.1-5.5-0.3c-0.3-0.2-0.4-0.4-0.4-0.7c0-0.7,0.8-1.8,1.3-2.4c2.8-3.1,5.8-6.3,5.8-6.3c1.9-1.9,2.5-2.4,6.2-2.4
		c0.7,0,1.8,0,3.4,0.1c1.4,0,2.6,0.5,2.6,1.7c0,0.5-0.8,1.2-1.5,1.9C1529.4,134.8,1529.4,134.9,1529.4,134.9z"/>
</g>
<path class="st0" d="M368,143.5c0-0.6-0.4-1.3-0.2-1.8c0.2-0.7,0-1.3-0.1-1.9c-0.2-0.8-0.7-1.8-0.5-2.5c0.2-0.8-0.1-1.2-0.4-1.7
	c-0.1-0.2-0.1-0.4-0.2-0.7c-0.4-1-0.8-1.9-1.2-2.9c-1.2-0.6-2.4-1-3.5-1.9c-1-0.8-2.2-1.3-3.4-1.9c-0.4-0.3-0.8-0.8-1.3-0.9
	c-1.5-0.2-2.5-1.3-3.7-1.9c-0.6-0.3-1-1.3-1.5-1.4c-2-0.1-3.4-1.5-5.1-2.2c-1.5-0.6-2.7-1.8-4-2.6c-0.5-0.3-1-0.4-1.5-0.6
	c-2-1.1-4-2.3-6.1-3.5c-0.6-0.3-1.3-0.5-1.9-0.7c-0.8-0.3-1.7-0.4-2.2-0.9c-0.7-0.6-1.2-1.2-2.2-1.5c-1.9-0.4-3.4-1.9-5.3-2.4
	c-1.4-0.3-2.6-1.1-3.8-2.1c-0.9-0.8-2.2-1.1-3-2.2c-0.1-0.1-0.3-0.2-0.5-0.2c-1.6-0.3-3.2-0.7-4.7-1.5c-1.1-0.6-2.5-0.6-3.5-1.3
	c-1-0.7-1.9-1.2-3.1-1.7c-1-0.4-1.8-1.1-2.7-1.6c-0.2-0.8-0.3-1.6-0.1-2.4c0.1-0.2,0.1-0.4,0-0.5c-0.4-1.8-0.3-3.5,0.3-5.2
	c0.1-0.2-0.1-0.6-0.2-0.9c-0.3-0.5-0.9-1-1-1.6c-0.1-0.8-0.5-1.2-1-1.7c-0.6-0.7-1.4-1.3-1.5-2.1c-0.1-0.8-0.6-1-1.1-1.4
	c-0.2-0.2-0.3-0.3-0.5-0.5c-0.8-0.7-1.6-1.4-2.3-2.1c-1.1,0-2.3,0.1-3.4-0.1c-0.1,0.3-0.1,0.6-0.1,0.9c0,0.6-0.5,1.3-0.8,1.9
	c-0.3,0.5-0.6,0.8-0.3,1.4c0.1,0.1,0.1,0.3,0,0.4c-0.5,0.7-0.2,1.5-0.3,2.2c0,0.4-0.4,0.7-0.5,0.9c-0.2,1.6-0.4,3.2-0.7,4.8
	c-0.1,0.6-0.5,1.3-0.3,1.6c0.6,0.9-0.1,1.8,0.1,2.6c0,0.1,0,0.3-0.1,0.4c-0.1,0.3-0.3,0.5-0.2,0.7c0.3,0.9-0.1,1.7-0.5,2.5
	c-0.1,0.2-0.2,0.5-0.2,0.7c0.2,0.8-0.1,1.4-0.3,2.1c0,0.2,0,0.3,0,0.5c0.2,1,0.5,2.1-0.2,3.1c-0.1,0.1,0,0.3,0,0.4
	c0.1,1.2,0.6,2.3,0.1,3.5c-0.1,0.4-0.1,0.9,0,1.3c0.2,1.3-0.2,2.4-0.3,3.7c0,0.3,0.1,0.6,0.2,0.8c0.3,0.7,0.2,1.4,0.1,2.1
	c-0.1,0.8-0.3,1.7,0.3,2.5c0.1,0.1,0.2,0.4,0.1,0.5c-0.4,0.6-0.1,1.1,0.1,1.7c0.2,0.5,0,1,0,1.4c0.1,1.3,0,2.6,0.7,3.8
	c0.3,0.6,0.2,1.4,0.4,2.1c0.1,0.3,0.1,0.7,0.3,0.9c0.6,0.9,1,1.8,0.8,2.8c0,0.1,0.1,0.3,0.2,0.4c0.3,1.1,0.7,2.2,0.9,3.3
	c0.1,0.6-0.4,1.2-0.6,1.8c-0.1,0.2-0.3,0.4-0.2,0.5c0,0.9-0.2,1.7-0.9,2.3c-0.2,0.2-0.2,0.6-0.5,0.7c-0.6,0.3-1,0.8-1.5,1.1
	s-1.3,0.1-1.9,0.3c-2.2,0.6-4-0.7-5.9-1.3c-0.5-0.2-0.8-1-1.3-1.4c-1.2-1-2.1-2.4-3.2-3.6c-0.6-0.6-1-1.4-0.8-2.4
	c0.1-0.5-0.4-1.2-0.7-1.7c-0.6-1.1-1.3-2.1-2-3.1c-0.8-1.4-1.6-2.8-2.3-4.2c-0.3-0.7-0.3-1.6-0.5-2.5c-0.1-0.2-0.2-0.5-0.3-0.7
	c-0.3-1.2-0.5-2.4-0.8-3.6c-0.2-0.9-0.6-1.8-0.9-2.8c-0.2-0.9-0.4-1.9-0.5-2.8c-0.2-1.2-0.3-2.4-0.4-3.6c-0.2-1.3-0.5-2.5-1.3-3.7
	c-0.3-0.5-0.3-1.1-0.6-1.7c-0.3-0.7-0.9-0.7-1.5-0.2c-0.7,0.6-1.5,1.1-2.2,1.7c-0.3,0.2-0.6,0.5-0.7,0.8c-0.4,1.2-1.2,2.1-2,3
	c-0.3,0.4-0.4,0.9-0.7,1.4c-0.6,0.9-1.3,1.7-1.9,2.6c-0.5,0.7-1.1,1.4-1.6,2.1c-0.2,0.3-0.4,0.6-0.5,0.9c-0.6,1-1.3,2.1-1.9,3.1
	c-0.2,0.3-0.5,0.5-0.7,0.8c-0.7,1.2-1.3,2.5-2,3.7c-0.3,0.6-0.9,1-1.3,1.6c-0.1,0.1-0.4,0.3-0.3,0.5c0.2,1.1-0.6,1.7-1.3,2.2
	c-0.5,0.4-0.7,0.6-0.5,1c-0.3,0.5-0.5,0.9-0.7,1.2c-0.4,0.4-0.9,0.7-1.2,1.2c-0.3,0.4-0.4,0.8-0.6,1.3c-0.2,0.3-0.3,0.6-0.5,0.9
	c-0.2,0.4-0.4,0.7-0.7,1c0.1,0.1,0.1,0.1,0.2,0.2c-0.6,0.3-1.2,0.5-1.7,0.9s-0.8,1-1,1.6c-0.2,0.7-0.4,1.3-1.2,1.7
	c-0.3,0.1-0.5,0.5-0.7,0.9c-0.5,0.7-0.8,1.9-1.4,2.1c-1,0.4-0.8,1.5-1.6,2c-0.4,0.2-0.5,1.1-0.7,1.7c-0.1,0.1-0.1,0.4-0.2,0.4
	c-0.8,0-0.9,0.7-1,1.2c-0.2,0.9-1,1.1-1.6,1.6c-0.4,0.3-0.8,0.7-1,1c-0.7,0.9-1.3,2-2.1,2.8c-0.8,0.9-1.6,1.8-2.7,2.3
	c-0.3,0.1-0.4,0.5-0.6,0.8c-0.4,0.6-0.6,1.2-1.3,1.6c-1.4,0.8-2.7,1.7-3.6,3.1c-0.2,0.3-0.5,0.6-0.9,0.7c-0.8,0.4-1.4,0.8-1.8,1.6
	c-0.1,0.2-0.4,0.2-0.7,0.2c-2.3,0.1-3.9-1.1-5.5-2.6c-1-1-1.4-2.3-1.8-3.6c-0.2-0.7,0.3-1.5,0.5-2.2c0.4-1,0.8-2,1.3-3
	s0.6-2.3,1.3-3.3c0.5-0.7,1-1.2,1.6-1.6c0.7-0.5,0.7-1.3,0.8-2c0.1-0.4,0.2-0.6,0.5-0.9c0.5-0.4,0.7-1.2,1.2-1.6
	c0.7-0.7,0.8-1.5,1.1-2.3c0-0.1,0-0.2,0.1-0.2c0.9-0.5,1.1-1.5,1.7-2.3c0.2-0.2,0.2-0.5,0.5-0.8c0.3-0.5,0.5-1,0.8-1.5
	c0.3-0.4,0.7-0.8,1.1-1.2c0.1-0.1,0.2-0.1,0.2-0.2c0.1-1.5,1.8-2,1.9-3.4c0-0.3,0.6-0.5,0.9-0.7c0.4-0.3,1-0.6,0.7-1.4
	c1.4-0.1,1.8-1.4,2.5-2.2c0.2-0.3,0.5-0.5,0.7-0.7c0.6-0.6,1-1.5,1.6-2.2c0.7-1,1.6-1.9,2.3-2.9c0.6-0.7,1.1-1.5,1.7-2.2
	c0.2-0.2,0.5-0.3,0.7-0.5s0.6-0.4,0.5-0.5c-0.1-0.8,0.6-1.1,0.9-1.7c0.7-1.5,2.3-2.3,3-3.8c0.3-0.7,0.7-1.4,1.1-2.1
	c0.1-0.2,0.2-0.4,0.3-0.4c1.2-0.4,1.3-1.6,1.7-2.5c0.1-0.3-0.1-0.8-0.2-1.2c-0.1-0.5-0.5-0.5-1-0.5c-0.6,0-1.3-0.1-1.8,0.4
	c-0.2,0.1-0.3,0.3-0.5,0.5s-0.4,0.5-0.6,0.5c-1.6,0-2.2,1.4-3.3,2.2c-0.5,0.4-1,0.7-1.4,1.1c-0.5,0.5-1,1-1.6,1.5
	c-0.2,0.2-0.4,0.3-0.6,0.4c-1.1,0.2-1.9,0.8-2.6,1.7c-0.5,0.7-1.3,1-2.1,1.4c-1,0.5-2.2,1.1-2.7,2.2c-0.1,0.1-0.2,0.3-0.3,0.3
	c-0.9,0.1-1.2,1-1.9,1.4c-0.1,0.1-0.2,0.1-0.2,0.2c-0.3,1.4-1.7,1.7-2.4,2.6c-0.2,0.3-0.5,0.6-0.7,0.9c-0.2,0.2-0.3,0.6-0.5,0.8
	c-0.4,0.4-1.1,0.4-1.1,1.2c0,0.1-0.2,0.1-0.3,0.2c-1.1,0.5-2.1,1-2.6,2.3c-0.1,0.4-0.8,0.6-1.3,0.9c-0.5,0.2-0.9,0.3-1.1,0.9
	c-0.3,0.6-0.7,1.3-1.6,1.5c-0.2,0-0.5,0.3-0.5,0.4c0,0.9-0.8,1-1.3,1.3c-0.4,0.2-0.6,0.6-1,0.9c0,0,0,0.2-0.1,0.2
	c-1.2,0.4-1.5,1.6-2.4,2.3c-0.8,0.6-1.4,1.4-2.6,1.4c-0.2,0-0.4,0.2-0.5,0.4c-0.5,1.2-1.8,1.3-2.6,2c-0.9,0.7-2.1,0.9-2.6,2.1
	c-0.1,0.2-0.3,0.4-0.5,0.4c-1,0.2-1.9,0.3-2.9,0.6c-0.6,0.2-1.2,0.6-1.8,0.8c-0.4,0.2-0.9,0.3-1.3,0.4c-0.5,0.1-1,0.1-1.5,0.2
	c-1.1,0.1-1.7-0.7-2.5-1.2s-1.6-1.2-2.2-2c-0.7-0.9-1.1-2-1-3.1c0-0.6,0.1-1.1,0.1-1.6c0.3-0.5,0.7-0.9,1-1.4s0.5-1.2,0.9-1.6
	c0.2-0.3,0.7-0.4,1.2-0.6c0.2-0.9,1.7-2.3,2.5-2.4c0.3-0.4,0.5-0.6,0.7-0.9c0.5-0.7,1.1-1.3,1.7-2c0.1-0.1,0.2-0.2,0.3-0.2
	c1-0.1,1.5-1.1,2.3-1.5c0.1,0,0.1-0.1,0.2-0.2c0.4-0.8,0.4-0.8,1.2-0.9c0-0.1-0.1-0.1-0.1-0.2c0.4-0.4,1-0.7,1.2-1.1
	c0.4-0.9,1-0.5,1.5-0.6c0.3-0.6,0.6-1.2,1-1.7c0.2-0.3,0.3-0.6,0.5-0.8c0.6-0.9,1.1-1.7,2.3-1.8c0.3,0,0.7-0.7,0.9-1.2
	c0.3-0.9,1.2-1.2,1.9-1.7c0.3-0.2,0.7-0.5,0.9-0.8c0.3-0.4,0.4-1,0.7-1.4c0.1-0.2,0.5-0.3,0.7-0.5c0.3-0.2,0.6-0.3,0.8-0.5
	c0.5-0.4,1-0.9,1.5-1.4c0.4-0.4,0.7-0.9,1.1-1.4c0.4-0.5,0.9-1,1.3-1.5c0.3-0.3,0.5-0.6,0.8-0.8c0.6-0.5,1.2-1,1.8-1.5
	c0.2-0.2,0.3-0.5,0.4-0.7c0.2-0.2,0.4-0.4,0.6-0.6c0.7-0.6,1.8-1.1,2-1.8c0.3-1,1.1-1.2,1.7-1.8c0.5-0.5,1.2-0.8,1.5-1.3
	c1.1-1.5,2.5-2.7,3.8-3.9c0.7-0.7,0.7-1.5,0-2.1c-0.4-0.4-0.9-0.9-1.4-1c-0.3,0-0.7,0.7-1.1,1.1c-0.3,0.3-0.7,0.5-1,0.7
	c-0.6,0.5-1.2,1-1.8,1.5c-0.2,0.2-0.4,0.4-0.7,0.6c-0.7,0.5-1.4,1.1-2.1,1.6c-0.2,0.2-0.5,0.3-0.8,0.5c-0.8,0.7-1.6,1.3-2.5,2
	c-0.3,0.2-0.7,0.1-0.9,0.3c-0.4,0.3-0.9,0.7-1.2,1.1c-0.5,0.6-1,0.9-1.7,1h-0.1c-0.9,0.5-1.8,0.9-2.6,1.5c-1,0.8-2,1.7-3,2.5
	c-0.2,0.2-0.6,0.3-0.9,0.4c-0.4,0.1-0.8,0.2-0.8,0.7c0,0.1-0.2,0.2-0.3,0.3c-0.8,0.1-1.3,0.7-1.8,1.3c-0.2,0.3-0.6,0.5-0.8,0.7
	c-0.4,0.4-0.8,0.8-1.2,1.1c-0.4,0.3-0.8,0.4-1.2,0.6c-0.3,0.2-0.6,0.5-0.9,0.7c-0.1,0.1-0.1,0.2-0.2,0.3c-0.9,0.5-1.8,1.1-2.8,1.5
	c-0.9,0.3-1.4,1-2,1.6c-0.1,0.1-0.2,0.3-0.4,0.3c-1.2,0.1-1.8,1.1-2.7,1.5c-0.8,0.4-1.8,0.6-2.7,0.9c-0.2,0.1-0.4,0-0.6,0.1
	c-1,0.4-1.9,1-2.9,1.4c-1.1,0.4-2,1.1-3.4,0.6c-1.5-0.5-2.9-1.3-4.1-2.4c-1-1-2.1-2-2.6-3.4c-0.2-0.4-0.1-0.9-0.1-1.3
	s0.2-0.8,0.2-1.2c0-0.6,0.1-1,0.6-0.9c0.5-0.7,0.9-1.4,1.4-2s0.9-1.3,1.4-1.9c0.4-0.4,0.6-1.2,1.4-1.1c0.1,0,0.2-0.1,0.2-0.1
	c0.3-1,1.4-1,2-1.6c0.9-0.9,2.2-0.6,3-1.5c0.5-0.6,1.2-1.1,1.8-1.7c0.1-0.1,0.1-0.2,0.2-0.2c0.9-0.4,1.8-0.7,2.6-1.1
	c0.3-0.1,0.8-0.3,0.9-0.6c0.3-0.9,1-0.8,1.7-0.9c0.2,0,0.4-0.1,0.5-0.2c0.4-0.4,0.8-0.9,1.2-1.4c0.1-0.1,0.3-0.3,0.4-0.3
	c0.5-0.2,0.9-0.4,1.4-0.6s0.9-0.5,1.4-0.6c0.9-0.2,1.4-0.9,1.8-1.6c0.2-0.5,0.5-0.5,0.9-0.5c0.7,0,1.1-0.3,1.6-0.7
	c0.5-0.5,1.2-0.6,1.8-0.9c0.9-0.5,1.7-0.9,2.6-1.4c0.1-0.1,0.1-0.4,0.2-0.7c0.6,0,1.1-0.1,1.4-0.7c0.1-0.2,0.7-0.2,1-0.4
	c0.4-0.3,0.8-0.8,1.3-0.9c1-0.3,1.6-1.1,2.2-1.8c0.1-0.1,0.1-0.3,0.2-0.3c0.6-0.1,1.1-0.4,1.6-0.9c0.5-0.6,1.3-0.8,2-1.2
	c1.4-0.8,2.8-1.5,4.1-2.4c1.2-0.8,2.2-1.7,2.2-3.3c0-0.1,0.1-0.2,0.2-0.3c0.1-0.4,0.2-0.8,0.3-1.2c0-0.2,0-0.5,0-0.8
	c-0.8,0.4-1.6,0.7-2.3,1.3c-0.6,0.5-1.3,0.8-2,1.2c-0.6,0.3-1.1,0.8-1.7,0.9c-1.4,0.4-2.5,1.3-3.6,2.1c-0.6,0.4-1.5,0.4-2.2,0.7
	c-0.3,0.1-0.6,0.3-0.9,0.4c-0.8,0.5-1.6,1-2.4,1.4c-1.1,0.5-2.5,0.4-3.5,1.4c-0.4,0.4-0.9,0.5-1.4,0.1c-0.6,1-1.6,1.4-2.6,1.8
	c-0.8,0.3-1.7,0.4-2.5,0.6c-0.7,0.2-1.4,0.6-2.1,0.9c-0.5,0.2-1,0.4-1.6,0.4c-0.6,0.1-1.2,0-1.8,0.1c-1.9,0.3-3.2-0.8-4.5-1.7
	c-1-0.7-1.8-1.7-2.3-2.8c-0.4-0.7,0-1.7,0.7-2.7c0.2-0.3,0.5-0.6,0.6-1c0.1-0.8,0.5-1.1,1.2-1.3c0.8-0.2,1.1-0.8,1.3-1.4
	c0-0.1,0.1-0.3,0.2-0.3c0.7-0.3,1.5-0.6,2.2-0.8c0.7-0.3,1.5-0.4,2-0.8c0.4-0.3,0.7-0.8,1.3-1c1.3-0.5,2.6-1,3.9-1.5
	c0.5-0.2,1-0.1,1.4-0.3c0.2-0.1,0.4-0.4,0.6-0.6c0.1-0.1,0.2-0.3,0.3-0.3c0.8-0.1,1.7-0.2,2.4-0.4c0.8-0.2,1.8,0,2.2-1
	c0.1-0.2,0.4-0.2,0.6-0.3c1-0.3,1.9-0.7,2.9-1c0.3-0.1,0.5-0.2,0.8-0.2c0.6,0,1.2,0,1.6-0.7c0-0.1,0.2-0.2,0.2-0.2
	c1,0.1,1.5-0.8,2.4-1c0.2,0,0.4-0.1,0.5-0.3c0.5-0.8,1.3-0.9,2-1c1.1-0.1,1.7-0.7,2.2-1.5l0.1-0.1c0.7-0.3,1.5-0.5,2.1-1
	c0.7-0.7,1.7-0.6,2.4-1.1v-0.1c0-0.3-0.3-0.5-0.6-0.7c-0.5-0.3-1.3-0.5-1.6-0.9c-0.4-0.6-1-0.8-1.6-1.1c-0.8-0.3-1.8-0.6-2.3-1.2
	c-0.5-0.7-1-0.6-1.6-0.8c-0.2-0.1-0.4-0.2-0.7-0.2c-1-0.3-2-0.6-3-0.8c-1.2,0.6-2.2,1.4-3.6,1.6c-1.2,0.3-2.4,1-3.6,1.5
	c-0.5,0.2-1.1,0.2-1.4,0.5c-1.1,1-2.5,1.2-3.8,1.8c-0.6,0.3-1.7,0-2,0.4c-1.3,1.6-3.3,1.8-4.8,2.8c-1.3,0.8-3,1-4.5,1.6
	c-0.5,0.2-0.9,0.6-1.4,0.8c-2.1,0.9-4.3,1.8-6.4,2.7c-0.6,0.3-1.2,0.8-1.7,1.1c-0.7,0.4-1.4,1.1-2.1,1.2c-0.9,0.2-1.7,0.2-2.5,0.9
	c-1.5,1.2-3.5,1.6-5.1,2.8c-1.1,0.9-2.5,1.4-3.9,1.8c-1.2,0.3-2.2,1.1-3.5,1c-0.1,0-0.3,0.1-0.4,0.2c-1.3,1.1-2.5,2.2-4.1,2.9
	c-1.1,0.5-2,1.6-3.1,2s-2.2,0.8-3.2,1.4s-2.3,0.8-3.4,1.4c-0.7,0.3-1.2,0.8-1.8,1.3c-0.5,0.4-0.9,1-1.5,1.2
	c-1.7,0.9-3.4,1.7-5.1,2.5c-1.6,0.8-3.3,1.5-4.9,2.2c-0.3,0.1-0.6,0.3-0.7,0.6c-0.4,0.8-0.6,1.8-1.2,2.3c-1.3,1.2-1.1,3-2,4.3
	c-0.5,0.9-1,1.8-1.6,2.8c0.1,0.5,0.1,1.3,0.2,2.1c0.3,0.7,0.5,1.6,1,2c0.8,0.7,0.9,1.4,0.6,2.2c-0.2,0.6,0,0.8,0.5,1
	c0.3,0.1,0.6,0.5,0.7,0.8c0.4,1.1,0.7,2.3,1.2,3.2c0.8,1.3,1.1,2.6,1.3,4.1c0,0.2,0,0.4,0.1,0.5c0.9,0.5,0.5,1.2,0.4,1.6
	c0.6,0.6,1.2,1,1.6,1.6c0.3,0.6,0.3,1.3,0.6,2c0.2,0.5,0.7,0.8,1,1.2c0.2,0.5,0.5,1,0.7,1.4c-0.1,0.1-0.1,0.3-0.1,0.4
	c-0.1,0.6,0.1,0.8,0.7,0.9c0,0,0.1,0,0.1,0.1c0.2,0.5,0.4,1,0.7,1.4c0.2,0.3,0.2,0.7,0.3,1.1c0.1,0.4,0.2,0.8,0.4,1.1
	c0.5,0.7,1,1.4,1.5,2.1c0.3,0.5,0.5,1.1,0.7,1.7c0,0.2,0.1,0.4,0.2,0.4h0.1c0.1,0.4,0.3,0.9,0.5,1.2l0.1,0.1v0.1
	c0.1,0,0.1,0.1,0.2,0.1c0.5,0.7,0.9,1.3,0.9,2.2c0,0.6-0.1,1.3,0.8,1.7c0.4,0.1,0.5,0.9,0.8,1.4c0.3,0.6,0.6,1.4,1.1,1.8
	c1.1,0.8,1,1.8,0.9,2.9c1.3,0.2,1.5,1.1,1.7,2.2c0.1,0.6,0.6,1.1,1,1.7c0.1,0.1,0.4,0.2,0.4,0.3c-0.3,1,0.6,1.4,0.9,2.1
	c0.5,1,1,1.9,1.5,2.9c0.3,0.5,0.2,1.4,0.7,1.7c0.9,0.6,0.9,1.4,1.1,2.3c0.1,0.7,0.2,1.5,0.7,1.8c1,0.8,1.1,2.4,2.4,3
	c0.2,0.1,0.1,0.8,0.2,1.3c0.1,0.6,0.2,1.3,0.6,1.6c1.1,1,1.8,2.2,1.9,3.6c0,0.7,0.4,0.9,0.8,1.3c0.3,0.2,0.5,0.6,0.6,0.9
	c0.2,0.3,0.2,0.7,0.4,1c0.5,0.8,1,1.5,1.4,2.4c0.1,0.1,0.1,0.3,0.1,0.4c-0.5-0.9-1.2-1.7-2.2-2.3c-0.4-0.3-0.6-1-0.8-1.5
	c-0.2-0.4-0.2-1.1-0.4-1.2c-1.4-0.4-1.8-1.9-2.9-2.5c-0.5-0.3-0.8-1.1-1-1.7c-0.3-0.8-0.5-1.6-1.5-2.1c-0.5-0.2-0.6-1.1-0.9-1.6
	c-0.6-0.9-1.3-1.7-1.9-2.6c-0.5-0.6-1.4-0.9-1.3-1.9c0-0.1-0.3-0.1-0.4-0.2c-0.5-0.5-1.1-0.9-1.3-1.5c-0.3-1.1-0.7-1.9-2-1.8
	c-0.1-1.1-0.1-2.1-1.4-2.7c-0.6-0.3-0.9-1-1.4-1.5c-0.3-0.4-0.6-1.2-1-1.2c-1-0.2-1-1-1.1-1.5c-0.2-1.1-0.9-1.7-1.6-2.3
	c-0.5-0.4-0.7-1.1-1-1.6c-0.2-0.3-0.3-0.7-0.6-0.9c-0.8-0.8-1.6-1.5-2.4-2.3c-0.3-0.3-0.4-0.6-0.5-1c-0.2-0.3-0.3-0.7-0.5-1
	c-0.9-1.3-1.8-2.6-2.7-3.9c-0.3-0.4-0.9-0.6-1.2-1c-0.4-0.6-0.5-1.3-0.9-1.8s-1.1-0.8-1.8-1.3c0-0.4,0.3-1.2-0.7-1.5
	c-0.1,0-0.2-0.3-0.2-0.4c-0.4-1.4-1.1-2.7-2-3.8c-0.3-0.4-0.6-0.9-0.9-1.3c-0.2,0.5-0.4,1-0.6,1.5c-0.3,0.7-0.5,1.6-1.1,2.2
	c-0.6,0.6-1.3,1.2-1.6,2.1c-0.6,1.9-2.1,3.3-2.7,5.2c-0.4,1.4-1.3,2.5-2.3,3.6c-0.8,0.9-1.2,2.2-2.4,2.8c-0.1,0.1-0.2,0.3-0.2,0.4
	c-0.4,1.6-0.9,3.2-1.8,4.6c-0.7,1-0.7,2.4-1.5,3.4c-0.7,0.9-1.4,1.9-1.8,3c-0.5,1.1-1.4,2-2.1,3c-0.4,0.6-0.6,1.3-0.8,2
	c-0.2,0.6-0.3,1.3-0.6,1.9c-0.9,1.7-1.9,3.3-2.9,4.9c-0.9,1.5-1.9,3-2.9,4.6c-0.2,0.3-0.3,0.6-0.3,0.9c0.1,0.9,0.5,1.8,0.3,2.6
	c-0.4,1.7,0.7,3.1,0.8,4.7c0,1,0.2,2.1,0.3,3.2c0.4,0.4,0.9,1,1.4,1.6c0.7,0.4,1.3,1,2,1.1c1,0.1,1.5,0.6,1.7,1.5
	c0.2,0.6,0.4,0.7,1,0.6c0.3-0.1,0.8,0.1,1,0.2c1,0.6,1.8,1.5,2.8,2c1.3,0.7,2.4,1.6,3.4,2.7c0.1,0.1,0.3,0.3,0.4,0.3
	c1-0.1,1.1,0.7,1.3,1.1c0.8,0.2,1.6,0.2,2.2,0.5s1,1,1.5,1.3c0.4,0.3,1,0.2,1.5,0.5c1.4,0.8,2.7,1.6,4,2.4c0.3,0.2,0.6,0.5,0.9,0.7
	s0.6,0.5,0.9,0.7c1,0.4,2.1,0.7,3.1,1.1c0.3,0.1,0.6,0.4,0.9,0.6c0.5,0.4,1,0.9,1.6,1.1c1,0.3,1.8,0.6,2.4,1.5
	c0.3,0.4,0.7,1.2,1.6,0.9c0.4-0.1,0.9,0.5,1.4,0.7c0.6,0.3,1.3,0.8,1.9,0.8c1.4,0,1.8,0.9,2.4,1.9c1.2-0.6,1.8,0.1,2.6,0.9
	c0.4,0.5,1.2,0.6,1.8,0.8c0.1,0.1,0.5,0,0.5,0c0.3,1,1.3,0.8,1.9,1.2c0.9,0.5,1.9,1,2.8,1.6c0.5,0.3,1,1,1.5,1.1
	c1,0,1.6,0.7,2.2,1.3c0.5,0.5,1,1.1,1.6,1.2c1.3,0.1,2.3,1.4,3.7,1.1c0.2,0,0.6,0.6,0.9,0.9c0.4,0.4,0.9,1,1.4,1.1
	c1.5,0.2,2.7,0.8,3.6,2c0.4,0.6,0.9,0.5,1.4,0.6c0.4,0.1,0.7,0.3,1,0.4c0.3,0.2,0.5,0.4,0.8,0.6c0.8,0.4,1.7,0.7,2.5,1.2
	c0.3,0.2,0.5,0.5,0.6,0.9c0.2,0.7,0.6,0.7,1.2,0.9c0.9,0.3,2,0.6,2.6,1.3c0.9,1.1,2.3,1.2,3.4,1.8c0.4,0.2,0.8,0.4,1.3,0.7
	c0.2,0.1,0.4,0.4,0.5,0.4c1.4,0.1,2.3,1.1,3.1,2c0.1,0.1,0.2,0.3,0.3,0.3c0.9,0.3,2,0.3,2.7,1.2c0.1,0.1,0.2,0.1,0.4,0.2
	c0.3,0.1,0.6,0.2,0.9,0.3c0-0.1,0-0.2,0-0.3c0.5-0.7,0.2-1.5,0.3-2.2c0-0.4,0.4-0.7,0.5-0.9c0.2-1.6,0.4-3.2,0.7-4.8
	c0.1-0.6,0.5-1.3,0.3-1.6c-0.6-0.9,0.1-1.8-0.1-2.6c0-0.1,0-0.3,0.1-0.4c0.1-0.3,0.3-0.5,0.2-0.7c-0.3-0.9,0.1-1.7,0.5-2.5
	c0.1-0.2,0.2-0.5,0.2-0.7c-0.2-0.8,0.1-1.4,0.3-2.1c0-0.2,0-0.3,0-0.5c-0.2-1-0.5-2.1,0.2-3.1c0.1-0.1,0-0.3,0-0.4
	c-0.1-1.2-0.6-2.3-0.1-3.5c0.1-0.4,0.1-0.9,0-1.3c-0.2-1.3,0.2-2.4,0.3-3.7c0-0.3-0.1-0.6-0.2-0.8c-0.3-0.7-0.2-1.4-0.1-2.1
	c0.1-0.8,0.3-1.7-0.3-2.5c-0.1-0.1-0.2-0.4-0.1-0.5c0.4-0.6,0.1-1.1-0.1-1.7c-0.2-0.5,0-1,0-1.4c-0.1-1.3,0-2.6-0.7-3.8
	c-0.3-0.6-0.2-1.4-0.4-2.1c-0.1-0.3-0.1-0.7-0.3-0.9c-0.6-0.9-1-1.8-0.8-2.8c0-0.1-0.1-0.3-0.2-0.4c-0.3-1.1-0.7-2.2-0.9-3.3
	c-0.1-0.6,0.4-1.2,0.6-1.8c0.1-0.2,0.3-0.4,0.2-0.5c0-0.9,0.2-1.7,0.9-2.3c0.2-0.2,0.2-0.6,0.5-0.7c0.6-0.3,1-0.8,1.5-1.1
	s1.3-0.1,1.9-0.3c2.2-0.6,4,0.7,5.9,1.3c0.5,0.2,0.8,1,1.3,1.4c1.2,1,2.1,2.4,3.2,3.6c0.6,0.6,1,1.4,0.8,2.4
	c-0.1,0.5,0.4,1.2,0.7,1.7c0.6,1.1,1.3,2.1,2,3.1c0.8,1.4,1.6,2.8,2.3,4.2c0.3,0.7,0.3,1.6,0.5,2.5c0.1,0.2,0.2,0.5,0.3,0.7
	c0.3,1.2,0.5,2.4,0.8,3.6c0.2,0.9,0.6,1.8,0.9,2.8c0.2,0.9,0.4,1.9,0.5,2.8c0.2,1.2,0.3,2.4,0.4,3.6c0.2,1.3,0.5,2.5,1.3,3.7
	c0.3,0.5,0.3,1.1,0.6,1.7c0.3,0.7,0.9,0.7,1.5,0.2c0.7-0.6,1.5-1.1,2.2-1.7c0.3-0.2,0.6-0.5,0.7-0.8c0.4-1.2,1.2-2.1,2-3
	c0.3-0.4,0.4-0.9,0.7-1.4c0.6-0.9,1.3-1.7,1.9-2.6c0.5-0.7,1.1-1.4,1.6-2.1c0.2-0.3,0.4-0.6,0.5-0.9c0.6-1,1.3-2.1,1.9-3.1
	c0.2-0.3,0.5-0.5,0.7-0.8c0.7-1.2,1.3-2.5,2-3.7c0.3-0.6,0.9-1,1.3-1.6c0.1-0.1,0.4-0.3,0.3-0.5c-0.2-1.1,0.6-1.7,1.3-2.2
	c0.5-0.4,0.7-0.6,0.5-1c0.3-0.5,0.5-0.9,0.7-1.2c0.4-0.4,0.9-0.7,1.2-1.2c0.3-0.4,0.4-0.8,0.6-1.3c0.2-0.3,0.3-0.6,0.5-0.9
	c0.2-0.4,0.4-0.7,0.7-1c-0.1-0.1-0.1-0.1-0.2-0.2c0.6-0.3,1.2-0.5,1.6-0.9c0.5-0.4,0.8-1,1-1.6c0.2-0.7,0.4-1.3,1.2-1.7
	c0.3-0.1,0.5-0.5,0.7-0.9c0.5-0.7,0.8-1.9,1.4-2.1c1-0.4,0.8-1.5,1.6-2c0.4-0.2,0.5-1.1,0.7-1.7c0.1-0.1,0.1-0.4,0.2-0.4
	c0.8,0,0.9-0.7,1-1.2c0.2-0.9,1-1.1,1.6-1.6c0.4-0.3,0.8-0.7,1-1c0.7-0.9,1.3-2,2.1-2.8c0.8-0.9,1.6-1.8,2.7-2.3
	c0.3-0.1,0.4-0.5,0.6-0.8c0.4-0.6,0.6-1.2,1.3-1.6c1.4-0.8,2.7-1.7,3.6-3.1c0.2-0.3,0.5-0.6,0.9-0.7c0.8-0.4,1.4-0.8,1.8-1.6
	c0.1-0.2,0.4-0.2,0.7-0.2c2.3-0.1,3.9,1.1,5.5,2.6c1,1,1.4,2.3,1.8,3.6c0.2,0.7-0.3,1.5-0.5,2.2c-0.4,1-0.8,2-1.3,3
	s-0.6,2.3-1.3,3.3c-0.5,0.7-1,1.2-1.6,1.6c-0.7,0.5-0.7,1.3-0.8,2c-0.1,0.4-0.2,0.6-0.5,0.9c-0.5,0.4-0.7,1.2-1.2,1.6
	c-0.7,0.7-0.8,1.5-1.1,2.3c0,0.1,0,0.2-0.1,0.2c-0.9,0.5-1.1,1.5-1.7,2.3c-0.2,0.2-0.2,0.5-0.5,0.8c-0.3,0.5-0.5,1-0.8,1.5
	c-0.3,0.4-0.7,0.8-1.1,1.2c-0.1,0.1-0.2,0.1-0.2,0.2c-0.1,1.5-1.8,2-1.9,3.4c0,0.3-0.6,0.5-0.9,0.7c-0.4,0.3-1,0.6-0.7,1.4
	c-1.4,0.1-1.8,1.4-2.5,2.2c-0.2,0.2-0.5,0.5-0.7,0.7c-0.6,0.6-1,1.5-1.6,2.2c-0.7,1-1.6,1.9-2.3,2.9c-0.6,0.7-1.1,1.5-1.7,2.2
	c-0.2,0.2-0.5,0.3-0.7,0.5s-0.6,0.4-0.5,0.5c0.1,0.8-0.6,1.1-0.9,1.7c-0.7,1.5-2.3,2.3-3,3.8c-0.3,0.7-0.7,1.4-1.1,2.1
	c-0.1,0.2-0.2,0.4-0.3,0.4c-1.2,0.4-1.3,1.6-1.7,2.5c-0.1,0.3,0.1,0.8,0.2,1.2c0.1,0.5,0.5,0.5,1,0.5c0.6,0,1.3,0.1,1.8-0.4
	c0.2-0.1,0.3-0.3,0.5-0.5s0.4-0.5,0.6-0.5c1.6,0,2.2-1.4,3.3-2.2c0.5-0.4,1-0.7,1.4-1.1c0.5-0.5,1-1,1.6-1.5
	c0.2-0.2,0.4-0.3,0.6-0.4c1.1-0.2,1.9-0.8,2.6-1.7c0.5-0.7,1.3-1,2.1-1.4c1-0.5,2.2-1.1,2.7-2.2c0.1-0.1,0.2-0.3,0.3-0.3
	c0.9-0.1,1.2-1,1.9-1.4c0.1-0.1,0.2-0.1,0.2-0.2c0.3-1.4,1.7-1.7,2.4-2.6c0.2-0.3,0.5-0.6,0.7-0.9c0.2-0.2,0.3-0.6,0.5-0.8
	c0.4-0.4,1.1-0.4,1.1-1.2c0-0.1,0.2-0.1,0.3-0.2c1.1-0.5,2.1-1,2.6-2.3c0.1-0.4,0.8-0.6,1.3-0.9c0.5-0.2,0.9-0.3,1.1-0.9
	c0.3-0.6,0.7-1.3,1.6-1.5c0.2,0,0.5-0.3,0.5-0.4c0-0.9,0.8-1,1.3-1.3c0.4-0.2,0.6-0.6,1-0.9c0,0,0-0.2,0.1-0.2
	c1.2-0.4,1.5-1.6,2.4-2.3c0.8-0.6,1.4-1.4,2.6-1.4c0.2,0,0.4-0.2,0.5-0.4c0.5-1.2,1.8-1.3,2.6-2c0.9-0.7,2.1-0.9,2.6-2.1
	c0.1-0.2,0.3-0.4,0.5-0.4c1-0.2,1.9-0.3,2.9-0.6c0.6-0.2,1.2-0.6,1.8-0.8c0.4-0.2,0.9-0.3,1.3-0.4c0.5-0.1,1-0.1,1.5-0.2
	c1.1-0.1,1.7,0.7,2.5,1.2s1.6,1.2,2.2,2c0.7,0.9,1.1,2,1,3.1c0,0.6-0.1,1.1-0.1,1.6c-0.3,0.5-0.7,0.9-1,1.4s-0.5,1.2-0.9,1.6
	c-0.2,0.3-0.7,0.4-1.2,0.6c-0.2,0.9-1.7,2.3-2.5,2.4c-0.3,0.4-0.5,0.6-0.7,0.9c-0.5,0.7-1.1,1.3-1.7,2c-0.1,0.1-0.2,0.2-0.3,0.2
	c-1,0.1-1.5,1.1-2.3,1.5c-0.1,0-0.1,0.1-0.2,0.2c-0.4,0.8-0.4,0.8-1.2,0.9c0,0.1,0.1,0.1,0.1,0.2c-0.4,0.4-1,0.7-1.2,1.1
	c-0.4,0.9-1,0.5-1.5,0.6c-0.3,0.6-0.6,1.2-1,1.7c-0.2,0.3-0.3,0.6-0.5,0.8c-0.6,0.9-1.1,1.7-2.3,1.8c-0.3,0-0.7,0.7-0.9,1.2
	c-0.3,0.9-1.2,1.2-1.9,1.7c-0.3,0.2-0.7,0.5-0.9,0.8c-0.3,0.4-0.4,1-0.7,1.4c-0.1,0.2-0.5,0.3-0.7,0.5c-0.3,0.2-0.6,0.3-0.8,0.5
	c-0.5,0.4-1,0.9-1.5,1.4c-0.4,0.4-0.7,0.9-1.1,1.4s-0.9,1-1.3,1.5c-0.3,0.3-0.5,0.6-0.8,0.8c-0.6,0.5-1.2,1-1.8,1.5
	c-0.2,0.2-0.3,0.5-0.4,0.7c-0.2,0.2-0.4,0.4-0.6,0.6c-0.7,0.6-1.8,1.1-2,1.8c-0.3,1-1.1,1.2-1.7,1.8c-0.5,0.5-1.2,0.8-1.5,1.3
	c-1.1,1.5-2.5,2.7-3.8,3.9c-0.7,0.7-0.7,1.5,0,2.1c0.4,0.4,0.9,0.9,1.4,1c0.3,0,0.7-0.7,1.1-1.1c0.3-0.3,0.7-0.5,1-0.7
	c0.6-0.5,1.2-1,1.8-1.5c0.2-0.2,0.4-0.4,0.7-0.6c0.7-0.5,1.4-1.1,2.1-1.6c0.2-0.2,0.5-0.3,0.8-0.5c0.8-0.7,1.6-1.3,2.5-2
	c0.3-0.2,0.7-0.1,0.9-0.3c0.4-0.3,0.9-0.7,1.2-1.1c0.5-0.6,1-0.9,1.7-1h0.1c0.9-0.5,1.8-0.9,2.6-1.5c1-0.8,2-1.7,3-2.5
	c0.2-0.2,0.6-0.3,0.9-0.4c0.4-0.1,0.8-0.2,0.8-0.7c0-0.1,0.2-0.2,0.3-0.3c0.8-0.1,1.3-0.7,1.8-1.3c0.2-0.3,0.6-0.5,0.8-0.7
	c0.4-0.4,0.8-0.8,1.2-1.1c0.4-0.3,0.8-0.4,1.2-0.6c0.3-0.2,0.6-0.5,0.9-0.7c0.1-0.1,0.1-0.2,0.2-0.3c0.9-0.5,1.8-1.1,2.8-1.5
	c0.9-0.3,1.4-1,2-1.6c0.1-0.1,0.2-0.3,0.4-0.3c1.2-0.1,1.8-1.1,2.7-1.5c0.8-0.4,1.8-0.6,2.7-0.9c0.2-0.1,0.4,0,0.6-0.1
	c1-0.4,1.9-1,2.9-1.4c1.1-0.4,2-1.1,3.4-0.6c1.5,0.5,2.9,1.3,4.1,2.4c1,1,2.1,2,2.6,3.4c0.2,0.4,0.1,0.9,0.1,1.3
	c0,0.4-0.2,0.8-0.2,1.2c0,0.6-0.1,1-0.6,0.9c-0.5,0.7-0.9,1.4-1.4,2s-0.9,1.3-1.4,1.9c-0.4,0.4-0.6,1.2-1.4,1.1
	c-0.1,0-0.2,0.1-0.2,0.1c-0.3,1-1.4,1-2,1.6c-0.9,0.9-2.2,0.6-3,1.5c-0.5,0.6-1.2,1.1-1.8,1.7c-0.1,0.1-0.1,0.2-0.2,0.2
	c-0.9,0.4-1.8,0.7-2.6,1.1c-0.3,0.1-0.8,0.3-0.9,0.6c-0.3,0.9-1,0.8-1.7,0.9c-0.2,0-0.4,0.1-0.5,0.2c-0.4,0.4-0.8,0.9-1.2,1.4
	c-0.1,0.1-0.3,0.3-0.4,0.3c-0.5,0.2-0.9,0.4-1.4,0.6c-0.5,0.2-0.9,0.5-1.4,0.6c-0.9,0.2-1.4,0.9-1.8,1.6c-0.2,0.5-0.5,0.5-0.9,0.5
	c-0.7,0-1.1,0.3-1.6,0.7c-0.5,0.5-1.2,0.6-1.8,0.9c-0.9,0.5-1.7,0.9-2.6,1.4c-0.1,0.1-0.1,0.4-0.2,0.7c-0.6,0-1.1,0.1-1.4,0.7
	c-0.1,0.2-0.7,0.2-1,0.4c-0.4,0.3-0.8,0.8-1.3,0.9c-1,0.3-1.6,1.1-2.2,1.8c-0.1,0.1-0.1,0.3-0.2,0.3c-0.6,0.1-1.1,0.4-1.6,0.9
	c-0.5,0.6-1.3,0.8-2,1.2c-1.4,0.8-2.8,1.5-4.1,2.4c-1.2,0.8-2.2,1.7-2.2,3.3l0,0c0.6,0.3,1.3,0.6,1.9,0.9c0.6-0.5,1.3-0.8,2-1.1
	c0.6-0.3,1.1-0.8,1.7-0.9c1.4-0.4,2.5-1.3,3.6-2.1c0.6-0.4,1.5-0.4,2.2-0.7c0.3-0.1,0.6-0.3,0.9-0.4c0.8-0.5,1.6-1,2.4-1.4
	c1.1-0.5,2.5-0.4,3.5-1.4c0.4-0.4,0.9-0.5,1.4-0.1c0.6-1,1.6-1.4,2.6-1.8c0.8-0.3,1.7-0.4,2.5-0.6c0.7-0.2,1.4-0.6,2.1-0.9
	c0.5-0.2,1-0.4,1.6-0.4c0.6-0.1,1.2,0,1.8-0.1c1.9-0.3,3.2,0.8,4.5,1.7c1,0.7,1.8,1.7,2.3,2.8c0.4,0.7,0,1.7-0.7,2.7
	c-0.2,0.3-0.5,0.6-0.6,1c-0.1,0.8-0.5,1.1-1.2,1.3c-0.8,0.2-1.1,0.8-1.3,1.4c0,0.1-0.1,0.3-0.2,0.3c-0.7,0.3-1.5,0.6-2.2,0.8
	c-0.7,0.3-1.5,0.4-2,0.8c-0.4,0.3-0.7,0.8-1.3,1c-1.3,0.5-2.6,1-3.9,1.5c-0.5,0.2-1,0.1-1.4,0.3c-0.2,0.1-0.4,0.4-0.6,0.6
	c-0.1,0.1-0.2,0.3-0.3,0.3c-0.8,0.1-1.7,0.2-2.4,0.4c-0.8,0.2-1.8,0-2.2,1c-0.1,0.2-0.4,0.2-0.6,0.3c-0.3,0.1-0.6,0.2-0.9,0.3
	c1.1,0.5,2.2,0.7,3.2,1.4c2.2,1.5,4.6,2.7,7.1,3.7c1.6,0.6,3.1,1.6,4.6,2.5c0.2,0.1,0.4,0.3,0.6,0.3c0.7,0.2,1.4,0.4,2.1,0.7
	c2.6,1.2,5.2,2.3,7.8,3.5c0.3,0.1,0.6,0.4,0.9,0.6s0.6,0.4,0.9,0.6c0.6,0.3,1.2,0.6,1.7,0.8c0.7,0.3,1.5,0.8,2.2,0.7
	c0.9-0.1,2,0,2.5-1.1c0.1-0.3,0.6-0.6,1-0.7c1.2-0.3,2.4-0.6,3-1.9c0.1-0.3,0.5-0.6,0.7-0.6c1,0.1,1.4-0.8,2.1-1.2
	c0.4-0.3,0.6-0.9,0.9-1.4c0.1-0.2,0.1-0.6,0.3-0.7c0.7-0.3,0.7-1.1,1-1.7c0.5-0.9,1-1.7,1.5-2.6c0.3-0.5,0.5-0.9,0.7-1.4
	c0.1-0.3,0.4-0.6,0.3-0.8c-0.2-0.9,0-1.5,0.9-1.9c0.2-0.1,0.3-0.4,0.4-0.6c0.4-1.1,0.6-2.2,1.1-3.2c0.5-0.9,1.3-1.7,1.8-2.6
	c0.3-0.4,0.4-1,0.5-1.5c0.1-0.4,0.1-0.9,0.3-1.3c0.8-1.5,1.9-2.9,2.4-4.5c0.4-1,0.5-2,1.4-2.8c0.7-0.6,0.9-1.6,0.8-2.5
	c-0.1-1,0.5-1.6,1.3-2.1c-0.4-0.9,0-1.6,0.6-2.2c0.2-0.2,0.2-0.5,0.3-0.8c0.3-0.7,0.5-1.4,0.8-2.1c0.3-0.7,0.7-1.5,1-2.2
	c0.5-1.2,1.4-2.1,1.4-3.5c0-0.1,0.3-0.2,0.4-0.3c0.3-0.4,0.7-0.9,0.9-1.4c0.2-0.7,0.2-1.5,0.4-2.2c0.5-1.3,1.3-2.4,1.9-3.6
	c0.3-0.7,0.6-1.4,0.9-2.1c0.5-0.9,0.8-2,1.3-3c0.3-0.7,0.5-1.4,0.8-2.1c0.1-0.3,0.6-0.6,0.5-0.7c-0.4-0.9,0.3-1.3,0.6-1.9
	c0.3-0.6,0.4-1.4,1.3-1.7c0.1,0,0.2-0.3,0.2-0.4c-0.5-0.9,0.1-1.5,0.5-2.1c0.3-0.5,0.6-1.1,0.8-1.6c0.2-0.2,0.2-0.7,0.4-1
	c0.6-1.2,1.2-2.5,1.9-3.7c0.2-0.4,0.5-0.8,0.7-1.3c0.6-1.3,0.7-2.8,2-3.6c0.1-0.1,0.2-0.5,0.2-0.6c-0.3-0.8,0.2-1.2,0.6-1.7
	c0.2-0.3,0.4-0.7,0.5-1s0.1-0.8,0.3-0.9c1.1-0.9,1-2.6,2.3-3.5c0.7-0.5,0.8-1.8,1.2-2.7c0.6-1.4,1-2.9,1.8-4.1
	c0.5-0.8,0.9-1.5,0.9-2.4c0-0.2,0.2-0.5,0.4-0.7c0.6-0.9,1.3-1.8,1.1-3.1c0-0.2,0.2-0.5,0.3-0.8c0.7-1.4,1.5-2.7,2.2-4.2
	c0.6-1.4,1-2.9,1.6-4.2c0.3-0.7,1-1.2,1.3-1.8c0.4-1,0.4-2.1,1.2-2.9c0.1-0.1,0.2-0.3,0.2-0.5c0.4-1.8,1.3-3.3,2.6-4.6
	C368,144.2,368.1,143.8,368,143.5z"/>
</svg>
