<svg xmlns="http://www.w3.org/2000/svg" xmlns:xlink="http://www.w3.org/1999/xlink" viewBox="0 0 1040.42 620.4"><defs><style>.cls-1{fill:none;}.cls-2{clip-path:url(#clip-path);}.cls-3{fill:#fe0;}.cls-4{fill:#28619c;}.cls-5,.cls-6{fill:#4eaf8c;}.cls-6{font-size:80px;font-family:BeyondTheMountains, Beyond The Mountains;}</style><clipPath id="clip-path" transform="translate(-45.22 -41.66)"><rect class="cls-1" width="1128.13" height="712.5"></rect></clipPath></defs><title>Logo_FdNR_fond_clair</title><g id="Layer_2" data-name="Layer 2"><g id="Layer_1-2" data-name="Layer 1"><g class="cls-2"><path class="cls-3" d="M376.79,113.64l-.24-.24c-145.28.79-262.82,118.8-262.82,264.27A263.42,263.42,0,0,0,189.65,563l186-185Z" transform="translate(-45.22 -41.66)"></path><path class="cls-4" d="M119.14,432,45.22,447.28A340.08,340.08,0,0,0,172.78,651.9L218.92,590A265.19,265.19,0,0,1,119.14,432" transform="translate(-45.22 -41.66)"></path><path class="cls-4" d="M376.79,41.66A338.77,338.77,0,0,0,150,128.38l49.86,52.56.92-.19-.11-.13a265.1,265.1,0,0,1,355.57,3l49.62-53.2A338.82,338.82,0,0,0,376.79,41.66" transform="translate(-45.22 -41.66)"></path><path class="cls-5" d="M507.71,379.32a129,129,0,1,1-129-129,129,129,0,0,1,129,129" transform="translate(-45.22 -41.66)"></path><path class="cls-4" d="M638,397.2c-.49,5.69-3.76,8.44-7.21,8.14-2.27-.2-21-19.13-49.79-19.43-4.84,6.67-10,9.13-14.33,9.13-7.41,0-9.48-4.12-9.48-6.77,0-1.57.79-4.32,5.14-6.57a13,13,0,0,1,4.94-1.77,25,25,0,0,1,4.25-.88,79.87,79.87,0,0,0,2.47-10.3c2.86-16,3.56-62.89,4.74-69.86s16.2-10.2,14.62-1.28c-1,5.4-1.09,49.06-4.64,69.27a50.68,50.68,0,0,1-3.46,11.48C609.07,377.87,639,386,638,397.2m-67.58-12.46c-9.09,0-10.28,7.65-6.72,7.65s6.72-7.65,6.72-7.65" transform="translate(-45.22 -41.66)"></path><path class="cls-4" d="M661.53,341.67c-.49,2.26-10.18,36-18.57,39a3.22,3.22,0,0,1-1.58.29c-9.29,0-11.56-19.13-12.25-19.13s-4.55,14.91-12.35,14.91-14.13-5.2-14.13-18.84c0-12.85,7.11-33.85,21.74-33.85,10.18,0,17.39,0,17.39,14.32,0,1.37-3.56,2.55-3.56.39s-.69-10.2-4.35-10.2c-9.68,0-18.28,17.46-18.28,35.52,0,3.63.39,9.52,3.36,9.52s9.19-20.51,9.19-25.61c0-2,0-5.49,5.93-5.49s8.5,2.75,8.5,4.81v1.57c.3,6.67-.3,25.51,3,25.51,2.07,0,12.94-31,13.63-33.16s2.86-2,2.37.49" transform="translate(-45.22 -41.66)"></path><path class="cls-4" d="M774.55,282.21c0,3.24-4.15.78-9.68.78-12.15,0-36.75,5-60,12.07v.2c0,1.47-1.38,6.38-3,13.44,9.09-2.94,17.59-5,21.14-4.9,3.06.29,6.32,3.34,6.22,5.59-.1,2.06-3.36,1-5.83.88-4.35-.1-14.13,4.12-23.42,8.63a139.21,139.21,0,0,0-1.78,21.19,119.93,119.93,0,0,0,5.53,37.18c0,.69-2.37,1.67-4.35,1.67-12.84,0-16.3-32.28-16.3-41.21q0-5.59.3-10.6c-2.67,1.27-4.45,2.06-5,2.06-2.47-.1-6.12-3.34-6-5.89,0-2,5.14-5,12.15-8a81.19,81.19,0,0,1,3.06-14.52c-20.75,7.65-37.15,16.48-37.15,23.94,0,2.26-2.86,3.73-2.86.79,0-30.41,87-53.77,114.31-53.77,6.62,0,12.65,7.26,12.65,10.5" transform="translate(-45.22 -41.66)"></path><path class="cls-4" d="M755.48,328.72c0,8.14-2.08,16-7,16s-8.69-2-8.69-4.12,1.68-10.6,1.68-10.6S730,352.65,729.2,366.59c1.09,7.16,2.57,9,2.57,10.69,0,2.65-16.2,7.55-16.2-30.32,0-10,1.28-24.63,4.64-24.63,6.62,0,9.68,3.43,9.68,7.55s-2,8.93-2,16.39c0,3.63.1,6.77.29,9.52,2.57-12.85,10.87-34.93,15.41-34.93,5.43,0,11.86-.29,11.86,7.85" transform="translate(-45.22 -41.66)"></path><path class="cls-4" d="M800.33,347.85c-.69,2-6.42,26-21.93,26-13.73,0-21.93-12.26-21.93-22.08,0-12.75,6.52-24.53,10.47-28.06s13.54-2.94,16.6-1.47,5.14,5.89,5.14,11.38c0,10.3-4.94,15.7-11.36,15.7A28.45,28.45,0,0,1,770.1,348c-.79,9.71,5.24,19.62,10.67,19.62,12.55,0,17-19,17.59-20.7.69-1.86,2.67-1.18,2,.88m-30-1.86c12.55,5.3,14.52-16.38,9.48-16.38s-8.5,7.85-9.48,16.38" transform="translate(-45.22 -41.66)"></path><path class="cls-4" d="M810.91,325.24c7.21,0,17.19-.88,17.19,6.57s-9.48,16.68-11.17,16.68,2.37-13.83.79-13.83c-7.61,0-14.52,19.13-8.7,19.13,2.57,0,17.69-.2,17.69,8.44S810.81,385,805,385s-9.58-5.1-7-5.1c4.74,0,18.38-14.52,18.38-18.05,0,0-21.24,3.24-21.24-12.66,0-8.54,8.7-23.94,15.81-23.94" transform="translate(-45.22 -41.66)"></path><path class="cls-4" d="M892,340.59c-3.65,10.89-20.15,36.3-27.47,62.79.3,3.43.89,7.75-1.78,7.75-5,0-7.11-8-7.11-23,0-7.36,1.38-17.86,2.87-27.28-1.68,1.47-10.87,16-16.5,16-5.93,0-10.37-7.55-10.37-14.13,0-10.3,10.28-38.85,28.26-38.85s14,14.23,14,16.68a1.46,1.46,0,0,1-.3,1,3.44,3.44,0,0,1,.39,1.67c0,4.71-8.2,22.57-9.48,50.33,5.73-15.6,20.55-41.9,25.19-54.16.89-2.35,2.67-.3,2.27,1.18m-21-1.77c-.4-3.92-2.17-9.91-6-9.91-14,0-27.86,45.33-21.64,45.33,3.16,0,16.8-25.21,17.68-29.24l-.59,4.12c.69-4.32,1.18-7.55,1.18-8.73,0-4.42,5.63-3.93,9.39-1.57m-9.88,5.89a1,1,0,0,0-.1.3Z" transform="translate(-45.22 -41.66)"></path><path class="cls-4" d="M920.07,375.81c-6.32,0-13.54-4.32-13.54-15.4,0-1.47,0-3,.1-4.81l-7.51,18.74a7.77,7.77,0,0,1,.79,2.75c0,2.65-14.82.49-14.82-16.88,0-10.69,2.47-27.67,2.47-31.1,0-2.36-2.77-5.3,1.58-5.3,5.24,0,11.56,2.94,11.56,6.48S897,345.59,897,359.52A48.29,48.29,0,0,0,898,371.2c2-4.51,6.52-15.4,9-23.25.2-3.63.39-6.77.39-7.85,0-1.76.4-4.32,2.77-4.32s11.56.88,11.56,5.69c0,3.14-1.58,5.4-1.58,19.82,0,11.38,3.75,14.52-.1,14.52" transform="translate(-45.22 -41.66)"></path><path class="cls-4" d="M970.36,347.85c-.69,2-6.42,26-21.93,26-13.73,0-21.93-12.26-21.93-22.08,0-12.75,6.52-24.53,10.47-28.06s13.54-2.94,16.6-1.47,5.14,5.89,5.14,11.38c0,10.3-4.94,15.7-11.36,15.7a28.45,28.45,0,0,1-7.21-1.28c-.79,9.71,5.24,19.62,10.67,19.62,12.55,0,17-19,17.59-20.7.69-1.86,2.67-1.18,2,.88m-30-1.86c12.55,5.3,14.52-16.38,9.48-16.38s-8.5,7.85-9.48,16.38" transform="translate(-45.22 -41.66)"></path><path class="cls-4" d="M615.68,461.24c0,37.68,6.72,38.76,2.27,38.76-12.74,0-14.72-20.9-15.41-20.9s-5.83,11.68-13.63,11.68-15.81-5.2-15.81-18.84c0-12.85,7.11-33.95,21.74-33.95,5.43,0,8.79,0,10.77,2.26,2-14.72,4.64-30.32,4.64-30.81,0-.79.1-2.36,2-2.36s10.67,2.94,10.67,6.48-7.21,25.9-7.21,47.68m-11.76-7.36c-1.58.1-3.16-.2-3.16-1.18,0-2.16,2.27-10.11-1.38-10.11C592.07,442.6,586,460,586,478c0,3.63,2.07,9.52,5,9.52s12.35-20.51,12.35-25.61c0-2.06.2-4.81.49-8" transform="translate(-45.22 -41.66)"></path><path class="cls-4" d="M669.33,461.83c-.69,2-6.42,26-21.93,26-13.73,0-21.93-12.26-21.93-22.08,0-12.75,6.52-24.53,10.47-28.06s13.54-2.94,16.6-1.47,5.14,5.89,5.14,11.38c0,10.3-4.94,15.7-11.36,15.7A28.46,28.46,0,0,1,639.1,462c-.79,9.71,5.24,19.62,10.67,19.62,12.55,0,17-19,17.59-20.7.69-1.86,2.67-1.18,2,.88m-30-1.86c12.55,5.3,14.52-16.38,9.48-16.38s-8.5,7.85-9.48,16.38" transform="translate(-45.22 -41.66)"></path><path class="cls-4" d="M679.91,439.22c7.21,0,17.19-.88,17.19,6.57s-9.48,16.68-11.17,16.68,2.37-13.83.79-13.83c-7.61,0-14.52,19.13-8.7,19.13,2.57,0,17.69-.2,17.69,8.44S679.81,499,674,499s-9.58-5.1-7-5.1c4.74,0,18.38-14.52,18.38-18.05,0,0-21.24,3.24-21.24-12.66,0-8.54,8.7-23.94,15.81-23.94" transform="translate(-45.22 -41.66)"></path><path class="cls-4" d="M780.28,454.08c0,34.64,12.45,37.87,2.37,37.87-15.81,0-17.29-28-17.29-46.21a147.43,147.43,0,0,1,1.58-19.62,447.64,447.64,0,0,0-14.52,69.07c.89,1.86.69,2.06-2,2.06-7.61,0-21.44-12.95-21.44-44.05,0-16.19,3.16-28,3.16-30.51,0-1.77.39-5.89,3.75-5.89s12.65,5.79,12.65,10.89-3.26,17.07-3.26,29.63c0,13.83,1.68,23.06,3.56,28.94,2.37-12.56,11.56-58.38,21.34-76.63,1.78-7,3.85-11.87,5.73-11.87,4.74,0,10.67,2.06,10.67,8.54,0,6.67-6.32,14.82-6.32,47.78" transform="translate(-45.22 -41.66)"></path><path class="cls-4" d="M824.34,459c0,15-5,32.08-18,32.08-11.66,0-14.42-13.15-14.42-23.06,0-9.22,1.78-20.6,9-22.17,2.37-6.57,8.4-7.26,13-7.26,5.73,0,10.37,5.49,10.37,20.41m-11.07-14.42c-3.16,0-1.88,10.3-5.43,13.44.1,11.87-2.67,27.86,3.46,27.86s12.55-41.31,2-41.31" transform="translate(-45.22 -41.66)"></path><path class="cls-4" d="M864.84,489.79c-6.32,0-13.54-4.32-13.54-15.4,0-1.47,0-3,.1-4.81l-7.51,18.74a7.77,7.77,0,0,1,.79,2.75c0,2.65-14.82.49-14.82-16.88,0-10.69,2.47-27.67,2.47-31.1,0-2.36-2.77-5.3,1.58-5.3,5.24,0,11.56,2.94,11.56,6.48s-3.76,15.3-3.76,29.24a48.29,48.29,0,0,0,1.09,11.68c2-4.51,6.52-15.4,9-23.25.2-3.63.39-6.77.39-7.85,0-1.77.4-4.32,2.77-4.32s11.56.88,11.56,5.69c0,3.14-1.58,5.4-1.58,19.82,0,11.38,3.75,14.52-.1,14.52" transform="translate(-45.22 -41.66)"></path><path class="cls-4" d="M910.09,455.16c-4.35,16.48-12.94,34.34-12.94,34.34-.4,1.27-1.78,1.27-3.46.49a1.44,1.44,0,0,1-1.29.49c-7.8,0-21.14-17.07-21.14-47.19,0-1.86-1.28-5.59,2.57-5.59,6.82,0,10.37,4,10.37,9a87.14,87.14,0,0,0,5.63,31.1c2.86-7.06,8.79-19.13,10.28-25.12,4-14.62,2.27-14.23,3-17.07s11.36,3.14,7,19.52" transform="translate(-45.22 -41.66)"></path><path class="cls-4" d="M957.12,461.83c-.69,2-6.42,26-21.93,26-13.73,0-21.93-12.26-21.93-22.08,0-12.75,6.52-24.53,10.47-28.06s13.54-2.94,16.6-1.47,5.14,5.89,5.14,11.38c0,10.3-4.94,15.7-11.36,15.7a28.46,28.46,0,0,1-7.21-1.28c-.79,9.71,5.24,19.62,10.67,19.62,12.55,0,17-19,17.59-20.7.69-1.86,2.67-1.18,2,.88m-30-1.86c12.55,5.3,14.52-16.38,9.48-16.38s-8.5,7.85-9.48,16.38" transform="translate(-45.22 -41.66)"></path><path class="cls-4" d="M1009.68,455.65c-.49,2.26-10.18,36-18.57,39a3.22,3.22,0,0,1-1.58.29c-9.29,0-11.56-19.13-12.25-19.13s-4.55,14.91-12.35,14.91-14.13-5.2-14.13-18.84c0-12.85,7.11-33.85,21.74-33.85,10.18,0,17.39,0,17.39,14.32,0,1.37-3.56,2.55-3.56.39s-.69-10.2-4.35-10.2c-9.68,0-18.28,17.46-18.28,35.52,0,3.63.39,9.52,3.36,9.52s9.19-20.51,9.19-25.61c0-2,0-5.49,5.93-5.49s8.5,2.75,8.5,4.81v1.57c.3,6.67-.3,25.51,3,25.51,2.07,0,12.94-31,13.63-33.16s2.86-2,2.37.49" transform="translate(-45.22 -41.66)"></path><path class="cls-4" d="M1035.46,489.79c-6.32,0-13.54-4.32-13.54-15.4,0-1.47,0-3,.1-4.81l-7.51,18.74a7.77,7.77,0,0,1,.79,2.75c0,2.65-14.82.49-14.82-16.88,0-10.69,2.47-27.67,2.47-31.1,0-2.36-2.77-5.3,1.58-5.3,5.24,0,11.56,2.94,11.56,6.48s-3.76,15.3-3.76,29.24a48.29,48.29,0,0,0,1.09,11.68c2-4.51,6.52-15.4,9-23.25.2-3.63.39-6.77.39-7.85,0-1.77.4-4.32,2.77-4.32s11.56.88,11.56,5.69c0,3.14-1.58,5.4-1.58,19.82,0,11.38,3.75,14.52-.1,14.52" transform="translate(-45.22 -41.66)"></path><path class="cls-4" d="M1074.85,497.05c-4.94,0-10.87-5.79-16.4-13.64-4.45,4.71-8.79,7.85-12.15,7.85-8.79,0-8.2-6-6.82-6,3.75,0,8.79-4.22,13.83-10-6.92-11.77-12.05-25.21-12.05-31,0-2,12.45-10,12.45-4.9,0,1.27,3.66,12.07,8.89,23.55,5.93-9.12,10.37-18.05,10.37-20.9,0-3.92,7.31,2.26,7.31,5.3,0,4.12-5.83,15.21-12.94,25.31,5.53,10.4,12.05,19.33,17.78,19.33,2.47,0-4.44,5.1-10.27,5.1" transform="translate(-45.22 -41.66)"></path><path class="cls-4" d="M648.19,629.65c-22.73,0-43.37-35-52.76-55.92a46.61,46.61,0,0,1-5,1.18c.69,20.51,9.09,33.46,9.09,34.14s-2.57,2.26-4.84,2.26c-13.63,0-21.24-25.61-21.24-57.79,0-14.72,2.17-32.38,6.92-32.38,3.56,0,14.13.39,14.13,4,0,3.24-3.36,18.05-4,39.93a20.87,20.87,0,0,0,2.07-1.08c.4-11.28,4.15-53.37,18.18-53.37,2.27,0,13-.49,16.3,2.75s5.83,9.42,5.83,19.72c0,14.33-11,27.47-24.8,35.22,9.09,18.54,29.84,56.22,45.94,56.22,4.15,0,1.78,5.1-5.83,5.1m-52.56-67.4c11.06-6.48,24.4-16.88,24.4-31.89,0-12.46-6.22-14.62-10.87-14.62-8.6,0-12.84,35.22-13.54,46.51" transform="translate(-45.22 -41.66)"></path><path class="cls-4" d="M678.22,582.66c-.69,2-6.42,26-21.93,26-13.73,0-21.93-12.26-21.93-22.08,0-12.75,6.52-24.53,10.47-28.06s13.54-2.94,16.6-1.47,5.14,5.89,5.14,11.38c0,10.3-4.94,15.7-11.36,15.7a28.46,28.46,0,0,1-7.21-1.28c-.79,9.71,5.24,19.62,10.67,19.62,12.55,0,17-19,17.59-20.7.69-1.86,2.67-1.18,2,.88m-24.5-33a17.9,17.9,0,0,1-10.47.59c-2.47-.78-2.37-3,3.06-4.81,5.63-1.77,9.78-7.95,11.66-8.54s6.13,1.76,7.21,4.22c.4,1-5.83,6.57-11.46,8.54m-5.53,31.1c12.55,5.3,14.52-16.38,9.48-16.38s-8.5,7.85-9.48,16.38" transform="translate(-45.22 -41.66)"></path><path class="cls-4" d="M672,584.81c0-10.69,5.43-20.21,8.5-23.15s11.07-3.73,13.24-1.57,6.42,13.25,3.36,13.25-4.15-8.63-5.93-8.63c-6.62,0-9.48,39.25-.4,39.25,10.87,0,14.33-18.35,15.41-20.21s4-2.16,3,0-6.72,27.57-20.95,27.57c-9.88,0-16.2-13.15-16.2-26.49" transform="translate(-45.22 -41.66)"></path><path class="cls-4" d="M789.56,545.28c-8,2.45-25.49,5.2-41.6,6.48-2.47,13.83-5.24,30.12-5.24,39.73,0,26.1,8.6,28.26,2.67,28.26s-14.82-11.48-14.82-32.87c0-10,1.88-22.86,3.85-34.44a89.82,89.82,0,0,1-12.05-.49c-9.78-1.18-16.8-5.89-21.74-9.22-2.08-1.37-1-2.65.4-2.35,9.78,2,22.23,2.85,35,3.24l.59-2.94c1.48-7.75,2.67-13.64,2.67-15.8,0-9.42,12.05-3.34,12.05,4,0,2-.59,6-1.38,11.48l-.59,3.34c17-.1,32.7-.79,40.41-.79,2.86.1,2.27,1.57-.2,2.35" transform="translate(-45.22 -41.66)"></path><path class="cls-4" d="M765.11,565c7.21,0,17.19-.88,17.19,6.57s-9.48,16.68-11.17,16.68,2.37-13.83.79-13.83c-7.61,0-14.52,19.13-8.7,19.13,2.57,0,17.69-.2,17.69,8.44S765,624.8,759.18,624.8s-9.58-5.1-7-5.1c4.74,0,18.38-14.52,18.38-18.05,0,0-21.24,3.24-21.24-12.66,0-8.54,8.7-23.94,15.81-23.94" transform="translate(-45.22 -41.66)"></path></g><text class="cls-6" transform="translate(663.59 568.4)">!</text></g></g></svg>