<svg id="principal-identite_logo" width="51" height="48" viewBox="0 0 51 48" fill="none" xmlns="http://www.w3.org/2000/svg" role="img">
                        <g clip-path="url(#clip0_169:302)">
                            <path d="M36.0915 3.82932C35.8496 5.80033 41.1323 9.70211 42.3824 9.13897C43.6325 8.57582 42.7453 5.96122 41.4145 4.47292C40.0435 2.90416 36.4142 1.29517 36.0915 3.82932Z" fill="#E30613"></path>
                            <path d="M44.8019 12.2363C44.3583 12.5581 43.1889 10.2251 43.6728 9.90326C44.1567 9.58146 46.2537 11.2307 44.8019 12.2363Z" fill="#E30613"></path>
                            <path d="M25.4053 46.7892C25.365 45.8238 27.7039 44.9388 28.3894 46.0249C29.0749 47.111 27.7845 47.9557 27.0587 47.9959C26.3328 48.0361 25.4053 47.7143 25.4053 46.7892Z" fill="#E30613"></path>
                            <path d="M5.16171 36.2503C4.55683 37.4973 6.41181 39.1063 7.41996 38.8247C8.4281 38.5431 7.13767 36.6526 6.85539 36.0894C6.76164 35.9402 6.62813 35.82 6.46979 35.7421C6.31145 35.6643 6.13452 35.6319 5.95878 35.6486C5.78304 35.6653 5.61542 35.7304 5.47466 35.8367C5.3339 35.9429 5.22554 36.0862 5.16171 36.2503Z" fill="#E30613"></path>
                            <path d="M30.4863 46.7892C31.4541 47.4328 34.7205 46.1054 34.7205 45.3813C34.7205 44.6573 33.2687 44.4159 32.2203 44.4561C31.0105 44.4964 29.2362 45.9847 30.4863 46.7892Z" fill="#E30613"></path>
                            <path d="M12.6622 43.1689C13.0655 42.2035 18.6305 44.1343 18.0256 45.864C17.4207 47.5936 11.9767 44.7377 12.6622 43.1689Z" fill="#E30613"></path>
                            <path d="M11.2106 42.7668C10.767 43.33 8.42809 40.9165 8.912 40.3131C9.39591 39.7097 12.622 40.9567 11.2106 42.7668Z" fill="#E30613"></path>
                            <path d="M23.6309 46.8698C23.268 48.1167 20.2436 47.3122 19.8403 46.3066C19.4371 45.301 21.292 45.9446 22.0986 46.0251C22.7841 46.1055 23.9132 45.9446 23.6309 46.8698Z" fill="#E30613"></path>
                            <path d="M46.4553 15.2129C45.4875 16.0576 44.4391 20.3214 45.3665 20.7236C46.1731 21.0374 46.0642 18.5917 46.79 17.4172C48.4031 20.5708 48.4031 24.3036 47.7054 27.7227C46.9435 31.5858 45.3473 35.237 43.0276 38.4225C41.9128 40.0103 40.5355 41.3977 38.9547 42.5254C38.6725 42.6863 38.3902 43.0885 38.6725 43.3701C38.9547 43.6517 39.479 43.531 39.7613 43.3299C42.9873 41.1175 45.3665 37.7386 47.0199 34.2391C48.7539 30.6189 49.8427 26.5562 49.6814 22.5338C49.6437 20.6874 49.2322 18.8676 48.4716 17.1839C49.5282 17.8194 50.7097 19.1468 50.9839 18.6521C51.3751 17.9079 47.3828 14.3682 46.4553 15.2129Z" fill="#E30613"></path>
                            <path d="M3.95191 17.4655C4.96731 13.9274 6.88462 10.7121 9.51687 8.13336C10.6749 6.96371 11.9916 5.96175 13.4285 5.15674C13.118 5.27946 12.7925 5.36061 12.4606 5.39809C12.1283 5.45454 11.8035 5.54902 11.4928 5.67966C5.12136 9.29987 1.29041 16.5001 1.20976 23.7003C1.19703 26.0916 1.51179 28.4735 2.14532 30.7798C1.41542 30.2689 0.66536 29.5731 0.129027 29.6937C-0.677488 29.8949 2.7502 33.1933 4.0003 33.1933C5.2504 33.1933 5.57301 26.9585 4.56486 27.2803C4.08095 27.4331 3.95998 28.3864 3.85513 29.3196C2.90295 25.4212 2.93621 21.3479 3.95191 17.4655Z" fill="#E30613"></path>
                            <path d="M25.7279 43.2495C36.2622 43.2495 44.802 34.7311 44.802 24.2233C44.802 13.7154 36.2622 5.19702 25.7279 5.19702C15.1936 5.19702 6.65381 13.7154 6.65381 24.2233C6.65381 34.7311 15.1936 43.2495 25.7279 43.2495Z" fill="#E30613"></path>
                            <path opacity="0.2" d="M13.747 13.5959C13.7198 13.6724 13.7087 13.7536 13.7145 13.8346C13.7203 13.9155 13.7429 13.9944 13.7808 14.0662C13.8187 14.138 13.8711 14.2012 13.9347 14.2518C13.9983 14.3024 14.0717 14.3393 14.1503 14.3602C18.6668 15.6072 24.393 11.464 24.393 11.464C24.635 15.7278 29.1112 18.1413 30.8048 18.8653C30.8759 18.8971 30.9535 18.9114 31.0312 18.9071C31.109 18.9028 31.1845 18.88 31.2516 18.8406C31.3187 18.8013 31.3754 18.7465 31.417 18.6808C31.4585 18.6151 31.4837 18.5405 31.4904 18.4631C31.6517 14.6015 29.6354 10.7802 29.6354 10.7802C32.5388 11.3836 35.8456 10.2171 37.0957 9.69414C37.1483 9.66965 37.195 9.63412 37.2326 9.58998C37.2702 9.54583 37.2977 9.49411 37.3134 9.43835C37.3291 9.38258 37.3326 9.3241 37.3235 9.26688C37.3145 9.20967 37.2931 9.15509 37.261 9.10686C34.6587 7.1328 31.5911 5.85983 28.353 5.41038C25.1149 4.96094 21.8153 5.35013 18.7716 6.54053C19.2552 6.88234 19.7743 7.17096 20.3201 7.40133C16.3682 7.88403 14.3519 12.0674 13.747 13.5959Z" fill="url(#paint0_linear_169:302)"></path>
                            <path opacity="0.2" d="M42.5437 15.2935C42.5437 15.575 42.584 15.8968 42.584 16.1784C42.5845 19.2001 41.9882 22.1922 40.8292 24.984C39.6702 27.7757 37.9712 30.3124 35.8292 32.449C33.6872 34.5857 31.1442 36.2804 28.3454 37.4365C25.5466 38.5926 22.5469 39.1874 19.5176 39.1869C17.2652 39.1794 15.0251 38.8544 12.8639 38.2215C15.5932 40.713 18.9904 42.3587 22.6411 42.9577C26.2918 43.5567 30.0384 43.0833 33.4241 41.5951C36.8098 40.107 39.6882 37.6684 41.7085 34.5766C43.7288 31.4849 44.8036 27.8736 44.8019 24.1831C44.8056 21.0782 44.0292 18.0219 42.5437 15.2935Z" fill="url(#paint1_linear_169:302)"></path>
                            <path d="M25.0826 3.9501C25.0826 3.9501 26.9779 0.450558 30.4459 0.00808787C30.9702 -0.0723613 30.9299 0.410334 30.8895 0.933253C30.7653 2.03772 30.4516 3.11264 29.962 4.111C29.962 4.111 32.18 3.3065 37.1803 7.65076C37.2264 7.69415 37.2615 7.74774 37.2829 7.80718C37.3042 7.86663 37.3113 7.93026 37.3034 7.99293C37.2956 8.0556 37.2731 8.11555 37.2377 8.16791C37.2023 8.22028 37.155 8.26359 37.0997 8.29435C35.8496 8.89772 32.6639 10.2251 29.7201 9.78266C29.7201 9.78266 31.938 13.4833 31.9783 17.3449C31.9781 17.4217 31.9593 17.4973 31.9234 17.5652C31.8874 17.6332 31.8355 17.6914 31.7721 17.7349C31.7086 17.7784 31.6355 17.8059 31.5591 17.8151C31.4826 17.8242 31.4051 17.8147 31.3331 17.7874C29.5991 17.1438 25.002 15.0119 24.5584 10.7078C24.5584 10.7078 19.0338 15.1325 14.4769 14.1269C14.3954 14.1095 14.3183 14.0753 14.2508 14.0264C14.1833 13.9775 14.1269 13.915 14.0851 13.843C14.0433 13.771 14.0171 13.691 14.0082 13.6083C13.9993 13.5256 14.0078 13.4419 14.0334 13.3627C14.5576 11.7939 16.3319 7.53009 20.2839 6.84627C20.2839 6.84627 16.6545 5.67976 15.9287 2.58246C15.91 2.50586 15.9067 2.42635 15.919 2.34848C15.9312 2.27061 15.9587 2.19591 15.9999 2.12866C16.0411 2.0614 16.0952 2.00292 16.1591 1.95655C16.223 1.91017 16.2954 1.87683 16.3723 1.85842C17.824 1.57685 21.8566 1.0137 25.0826 3.9501Z" fill="#00833F"></path>
                        </g>
                        <defs>
                            <linearGradient id="paint0_linear_169:302" x1="28.4426" y1="16.0428" x2="22.5662" y2="7.05313" gradientUnits="userSpaceOnUse">
                                <stop offset="0" stop-color="#1D1D1B"></stop>
                                <stop offset="1" stop-color="#1D1D1B" stop-opacity="0"></stop>
                            </linearGradient>
                            <linearGradient id="paint1_linear_169:302" x1="12.8639" y1="29.2514" x2="44.8019" y2="29.2514" gradientUnits="userSpaceOnUse">
                                <stop offset="0" stop-color="#1D1D1B"></stop>
                                <stop offset="1" stop-color="#1D1D1B" stop-opacity="0"></stop>
                            </linearGradient>
                            <clipPath id="clip0_169:302">
                                <rect width="51" height="48" fill="white"></rect>
                            </clipPath>
                        </defs>
                    </svg>