<svg xmlns="http://www.w3.org/2000/svg" width="179.108" height="67.828" viewBox="0 0 179.108 67.828"><defs><style>.a{fill:#402121;}.b{fill:#f97910;}</style></defs><path class="a" d="M943.277,405.523v2h-4.2v4.014H936.85V400.82h7.311v2h-5.088v2.7Z" transform="translate(-850.617 -387.086)"/><path class="a" d="M1010.828,420.636a2.155,2.155,0,0,0-1.072-.285,1.6,1.6,0,0,0-1.169.456,4.519,4.519,0,0,0-.816,1.127v4.511h-2.031v-8.081h2.03v1.515a4.508,4.508,0,0,1,.984-1.2,1.94,1.94,0,0,1,1.281-.48,2.068,2.068,0,0,1,.784.142Z" transform="translate(-909.7 -401.99)"/><path class="a" d="M1052.651,417.891a3.892,3.892,0,0,1,2.038.512,3.4,3.4,0,0,1,1.313,1.415,4.589,4.589,0,0,1,.456,2.088v.864H1050.6a2.117,2.117,0,0,0,.8,1.311,2.483,2.483,0,0,0,1.566.5,3.592,3.592,0,0,0,1.6-.353,5.5,5.5,0,0,0,1.152-.712l-.016,1.888a4.751,4.751,0,0,1-1.139.679,4,4,0,0,1-1.677.337,4.448,4.448,0,0,1-2.184-.544,4.2,4.2,0,0,1-1.566-1.488,4.016,4.016,0,0,1-.584-2.159,4.47,4.47,0,0,1,.527-2.161,4.271,4.271,0,0,1,1.456-1.574A3.8,3.8,0,0,1,1052.651,417.891Zm-.048,1.777a1.815,1.815,0,0,0-1.264.463,2.4,2.4,0,0,0-.7,1.248h3.871a1.637,1.637,0,0,0-.639-1.281,2.091,2.091,0,0,0-1.263-.43Z" transform="translate(-946.421 -401.726)"/><path class="a" d="M1116.459,417.9a4.21,4.21,0,0,1,1.391.223,3.287,3.287,0,0,1,1,.512v1.792a6.124,6.124,0,0,0-.935-.5,2.855,2.855,0,0,0-1.139-.239,1.472,1.472,0,0,0-.912.256.749.749,0,0,0-.336.608.7.7,0,0,0,.192.471,1.629,1.629,0,0,0,.736.376l.913.3a2.16,2.16,0,0,1,1.839,2.127,2.214,2.214,0,0,1-.427,1.337,2.9,2.9,0,0,1-1.139.92,3.657,3.657,0,0,1-1.576.336,4.971,4.971,0,0,1-1.584-.256,4.114,4.114,0,0,1-1.167-.559v-1.777a4.533,4.533,0,0,0,.736.4,5.7,5.7,0,0,0,.9.312,3.363,3.363,0,0,0,.854.121,1.708,1.708,0,0,0,.935-.216.7.7,0,0,0,.327-.616.544.544,0,0,0-.272-.48,3.691,3.691,0,0,0-.8-.352l-1-.352a2.274,2.274,0,0,1-1.281-.864,2.442,2.442,0,0,1-.353-1.328,2.29,2.29,0,0,1,.393-1.335,2.662,2.662,0,0,1,1.095-.9A3.8,3.8,0,0,1,1116.459,417.9Z" transform="translate(-1001.958 -401.73)"/><path class="a" d="M1166.615,417.9a3.182,3.182,0,0,1,1.327.3,3.224,3.224,0,0,1,1.12.816v-.912h2.031v11.918h-2.031v-5.2a3.26,3.26,0,0,1-1.024,1.127,2.662,2.662,0,0,1-1.566.473,3.428,3.428,0,0,1-1.8-.5,3.573,3.573,0,0,1-1.32-1.441,5.523,5.523,0,0,1,.009-4.591,3.7,3.7,0,0,1,1.359-1.48A3.581,3.581,0,0,1,1166.615,417.9Zm.416,2a1.83,1.83,0,0,0-1.1.327,2.257,2.257,0,0,0-.712.854,2.511,2.511,0,0,0-.256,1.127,2.263,2.263,0,0,0,.552,1.544,1.85,1.85,0,0,0,1.463.631A1.959,1.959,0,0,0,1168,424.1a2.15,2.15,0,0,0,.767-.8,2.494,2.494,0,0,0,.3-1.256v-1.152a3.487,3.487,0,0,0-.935-.729,2.337,2.337,0,0,0-1.1-.256Z" transform="translate(-1044.451 -401.733)"/><path class="a" d="M1244.416,419.36v4.816a3.442,3.442,0,0,1-.48,1.851,3.193,3.193,0,0,1-1.3,1.191,4.413,4.413,0,0,1-3.742,0,3.149,3.149,0,0,1-1.3-1.191,3.49,3.49,0,0,1-.471-1.851V419.36h2.047l.017,4.447a2.017,2.017,0,0,0,.427,1.408,1.653,1.653,0,0,0,2.3,0,1.978,1.978,0,0,0,.44-1.408V419.36Z" transform="translate(-1108.144 -402.987)"/><path class="a" d="M1304.883,417.891a3.892,3.892,0,0,1,2.038.512,3.4,3.4,0,0,1,1.313,1.415,4.589,4.589,0,0,1,.456,2.088v.864h-5.855a2.117,2.117,0,0,0,.8,1.311,2.483,2.483,0,0,0,1.566.5,3.591,3.591,0,0,0,1.6-.353,5.492,5.492,0,0,0,1.152-.712l-.016,1.888a4.756,4.756,0,0,1-1.139.679,4,4,0,0,1-1.671.344,4.448,4.448,0,0,1-2.184-.544,4.2,4.2,0,0,1-1.566-1.488,4.016,4.016,0,0,1-.584-2.159,4.47,4.47,0,0,1,.527-2.161,4.272,4.272,0,0,1,1.456-1.574A3.8,3.8,0,0,1,1304.883,417.891Zm-.048,1.777a1.815,1.815,0,0,0-1.264.463,2.4,2.4,0,0,0-.7,1.248h3.87a1.637,1.637,0,0,0-.639-1.281A2.091,2.091,0,0,0,1304.835,419.668Z" transform="translate(-1162.754 -401.726)"/><path class="a" d="M935.28,612.452a5.551,5.551,0,0,1,2.175.393,3.429,3.429,0,0,1,1.448,1.079,2.553,2.553,0,0,1,.521,1.584,2.477,2.477,0,0,1-.427,1.423,2.909,2.909,0,0,1-1.065.959,3.132,3.132,0,0,1,.928.427,2.36,2.36,0,0,1,.736.784,2.407,2.407,0,0,1,.285,1.24,2.719,2.719,0,0,1-.545,1.64,3.788,3.788,0,0,1-1.519,1.191,5.408,5.408,0,0,1-2.278.447q-.7,0-1.52-.055t-1.532-.162q-.735-.105-1.247-.216V612.852a17.624,17.624,0,0,1,1.936-.3Q934.21,612.453,935.28,612.452Zm0,2.033a9.342,9.342,0,0,0-1.823.159v2.591h2a1.907,1.907,0,0,0,1.281-.4,1.281,1.281,0,0,0,.473-1.025,1.092,1.092,0,0,0-.569-.984A2.592,2.592,0,0,0,935.28,614.485Zm-1.823,6.943a6.036,6.036,0,0,0,1.032.152c.389.026.7.04.935.04a2.872,2.872,0,0,0,1.527-.369,1.157,1.157,0,0,0,.6-1.039,1.065,1.065,0,0,0-.625-1,3.2,3.2,0,0,0-1.5-.327h-1.967Z" transform="translate(-845.805 -568.591)"/><path class="a" d="M1007,607.455v8.08h-2.031v-6.352h-1.3v-1.728Zm-1.184-4.206a1.368,1.368,0,0,1,1,.407,1.327,1.327,0,0,1,0,1.929,1.354,1.354,0,0,1-1,.416,1.369,1.369,0,0,1-.984-2.345A1.34,1.34,0,0,1,1005.814,603.249Z" transform="translate(-907.925 -560.698)"/><path class="a" d="M1045.416,631.339a4.217,4.217,0,0,1,2.16.569,4.486,4.486,0,0,1,1.576,1.536,4.033,4.033,0,0,1,.6,2.168,3.986,3.986,0,0,1-.6,2.159,4.51,4.51,0,0,1-1.576,1.527,4.37,4.37,0,0,1-5.888-1.527,4.033,4.033,0,0,1-.591-2.159,4.076,4.076,0,0,1,.591-2.168,4.394,4.394,0,0,1,1.576-1.536A4.231,4.231,0,0,1,1045.416,631.339Zm0,1.969a2.183,2.183,0,0,0-1.072.272,2.03,2.03,0,0,0-.791.783,2.777,2.777,0,0,0,0,2.5,1.965,1.965,0,0,0,.791.776,2.3,2.3,0,0,0,2.144,0,2.031,2.031,0,0,0,.8-.776,2.719,2.719,0,0,0,0-2.5,2.1,2.1,0,0,0-.8-.783A2.189,2.189,0,0,0,1045.416,633.307Z" transform="translate(-940.024 -584.79)"/><path class="a" d="M1119.675,608.64v11.519h-2.031V618.8a3.264,3.264,0,0,1-1.024,1.129,2.67,2.67,0,0,1-1.566.471,3.427,3.427,0,0,1-1.8-.5,3.558,3.558,0,0,1-1.32-1.441,5.514,5.514,0,0,1,0-4.591,3.7,3.7,0,0,1,1.361-1.479,3.569,3.569,0,0,1,1.895-.521,3.426,3.426,0,0,1,2.448,1.12V608.64Zm-4.063,5.231a1.83,1.83,0,0,0-1.1.327,2.244,2.244,0,0,0-.712.854,2.519,2.519,0,0,0-.256,1.127,2.289,2.289,0,0,0,.552,1.552,1.835,1.835,0,0,0,1.463.641,1.927,1.927,0,0,0,1.015-.285,2.2,2.2,0,0,0,.769-.809,2.49,2.49,0,0,0,.3-1.256v-1.152a3.524,3.524,0,0,0-.937-.729A2.336,2.336,0,0,0,1115.612,613.871Z" transform="translate(-1000.349 -565.322)"/><path class="a" d="M1187.028,607.455v8.08H1185v-6.352h-1.3v-1.728Zm-1.184-4.206a1.368,1.368,0,0,1,1,.407,1.327,1.327,0,0,1,0,1.929,1.354,1.354,0,0,1-1,.416,1.369,1.369,0,0,1-.984-2.345A1.341,1.341,0,0,1,1185.844,603.249Z" transform="translate(-1062.327 -560.698)"/><path class="a" d="M1226.28,632.8l-3.829,8.08h-1.3l-3.775-8.08h2.367l2.037,5.011,2.135-5.008Z" transform="translate(-1091.213 -586.043)"/><path class="a" d="M1287.158,631.332a3.9,3.9,0,0,1,2.04.512,3.4,3.4,0,0,1,1.311,1.415,4.576,4.576,0,0,1,.456,2.088v.864h-5.855a2.122,2.122,0,0,0,.8,1.311,2.478,2.478,0,0,0,1.566.5,3.608,3.608,0,0,0,1.6-.352,5.551,5.551,0,0,0,1.152-.72l-.016,1.888a4.813,4.813,0,0,1-1.139.68,4.013,4.013,0,0,1-1.673.343,4.433,4.433,0,0,1-2.184-.544,4.217,4.217,0,0,1-1.566-1.488,4.016,4.016,0,0,1-.584-2.159,4.449,4.449,0,0,1,.528-2.159,4.271,4.271,0,0,1,1.455-1.576A3.806,3.806,0,0,1,1287.158,631.332Zm-.048,1.777a1.809,1.809,0,0,0-1.264.464,2.4,2.4,0,0,0-.7,1.247h3.871a1.641,1.641,0,0,0-.639-1.281A2.083,2.083,0,0,0,1287.11,633.108Z" transform="translate(-1147.548 -584.783)"/><path class="a" d="M1356.688,634.11a2.156,2.156,0,0,0-1.072-.285,1.6,1.6,0,0,0-1.169.456,4.519,4.519,0,0,0-.816,1.127v4.513H1351.6v-8.083h2.031v1.52a4.505,4.505,0,0,1,.984-1.2,1.94,1.94,0,0,1,1.281-.48,2.069,2.069,0,0,1,.784.142Z" transform="translate(-1206.327 -585.081)"/><path class="a" d="M1397.613,631.334a4.188,4.188,0,0,1,1.392.225,3.3,3.3,0,0,1,1,.511v1.792a6.01,6.01,0,0,0-.935-.5,2.834,2.834,0,0,0-1.139-.241,1.467,1.467,0,0,0-.911.256.745.745,0,0,0-.353.608.693.693,0,0,0,.192.471,1.606,1.606,0,0,0,.736.376l.911.3a2.164,2.164,0,0,1,1.841,2.128,2.217,2.217,0,0,1-.427,1.335,2.9,2.9,0,0,1-1.139.92,3.659,3.659,0,0,1-1.576.336,4.984,4.984,0,0,1-1.584-.256,4.1,4.1,0,0,1-1.167-.559v-1.781a4.71,4.71,0,0,0,.736.4,5.99,5.99,0,0,0,.908.312,3.415,3.415,0,0,0,.854.12,1.7,1.7,0,0,0,.935-.216.693.693,0,0,0,.329-.615.548.548,0,0,0-.272-.481,3.754,3.754,0,0,0-.8-.352l-1-.352a2.273,2.273,0,0,1-1.281-.864,2.44,2.44,0,0,1-.352-1.328,2.289,2.289,0,0,1,.391-1.335,2.654,2.654,0,0,1,1.1-.9A3.773,3.773,0,0,1,1397.613,631.334Z" transform="translate(-1243.077 -584.785)"/><path class="a" d="M1448.224,607.455v8.08H1446.2v-6.352h-1.3v-1.728Zm-1.184-4.206a1.368,1.368,0,0,1,1,.407,1.327,1.327,0,0,1,0,1.929,1.354,1.354,0,0,1-1,.416,1.369,1.369,0,0,1-.984-2.345A1.341,1.341,0,0,1,1447.04,603.249Z" transform="translate(-1286.345 -560.698)"/><path class="a" d="M1485.788,616.271v2.352h2.239v1.7h-2.239v3.488a1.334,1.334,0,0,0,.248.854.891.891,0,0,0,.743.312,2.541,2.541,0,0,0,.745-.1,2.3,2.3,0,0,0,.584-.272v1.616a2.528,2.528,0,0,1-.76.512,2.763,2.763,0,0,1-1.139.208,2.36,2.36,0,0,1-1.768-.7,2.61,2.61,0,0,1-.68-1.912v-4.014H1482.3v-1.041a3.368,3.368,0,0,0,1.415-1.023,5.511,5.511,0,0,0,1.032-1.984Z" transform="translate(-1318.421 -571.866)"/><path class="a" d="M1537.887,631.332a3.9,3.9,0,0,1,2.04.512,3.4,3.4,0,0,1,1.311,1.415,4.573,4.573,0,0,1,.456,2.088v.864h-5.855a2.117,2.117,0,0,0,.8,1.311,2.478,2.478,0,0,0,1.566.5,3.61,3.61,0,0,0,1.6-.352,5.548,5.548,0,0,0,1.152-.72l-.016,1.888a4.811,4.811,0,0,1-1.139.68,4.013,4.013,0,0,1-1.673.343,4.433,4.433,0,0,1-2.184-.544,4.207,4.207,0,0,1-1.566-1.488,4.014,4.014,0,0,1-.583-2.159,4.449,4.449,0,0,1,.528-2.159,4.271,4.271,0,0,1,1.455-1.576A3.807,3.807,0,0,1,1537.887,631.332Zm-.048,1.777a1.809,1.809,0,0,0-1.264.464,2.4,2.4,0,0,0-.7,1.247h3.87a1.64,1.64,0,0,0-.639-1.281A2.082,2.082,0,0,0,1537.839,633.108Z" transform="translate(-1362.586 -584.783)"/><path class="a" d="M938.7,501v11.53h-2.031v-1.359a3.273,3.273,0,0,1-1.023,1.127,2.66,2.66,0,0,1-1.566.471,3.428,3.428,0,0,1-1.8-.5,3.558,3.558,0,0,1-1.32-1.439,5.519,5.519,0,0,1,.007-4.592,3.7,3.7,0,0,1,1.361-1.479,3.567,3.567,0,0,1,1.895-.52,3.417,3.417,0,0,1,2.448,1.119V501Zm-4.063,5.231a1.822,1.822,0,0,0-1.1.329,2.229,2.229,0,0,0-.712.847,2.521,2.521,0,0,0-.256,1.129,2.292,2.292,0,0,0,.552,1.552,1.838,1.838,0,0,0,1.463.639,1.913,1.913,0,0,0,1.015-.285,2.2,2.2,0,0,0,.769-.809,2.5,2.5,0,0,0,.3-1.256v-1.152a3.487,3.487,0,0,0-.937-.727,2.316,2.316,0,0,0-1.095-.262Z" transform="translate(-845.136 -473.005)"/><path class="a" d="M1006.037,523.741a3.9,3.9,0,0,1,2.04.511,3.405,3.405,0,0,1,1.311,1.416,4.564,4.564,0,0,1,.456,2.087v.861h-5.855a2.12,2.12,0,0,0,.8,1.312,2.485,2.485,0,0,0,1.566.5,3.59,3.59,0,0,0,1.6-.352,5.492,5.492,0,0,0,1.152-.72l-.016,1.888a4.718,4.718,0,0,1-1.139.68,4.014,4.014,0,0,1-1.673.343,4.433,4.433,0,0,1-2.184-.544,4.2,4.2,0,0,1-1.566-1.488,4.014,4.014,0,0,1-.584-2.159,4.454,4.454,0,0,1,.528-2.159,4.271,4.271,0,0,1,1.451-1.567A3.806,3.806,0,0,1,1006.037,523.741Zm-.048,1.775a1.816,1.816,0,0,0-1.264.464,2.4,2.4,0,0,0-.7,1.247h3.871a1.64,1.64,0,0,0-.639-1.281A2.083,2.083,0,0,0,1005.989,525.516Z" transform="translate(-906.445 -492.508)"/><path class="a" d="M1096.623,501v11.53h-2.033V501Z" transform="translate(-985.902 -473.005)"/><path class="a" d="M1126.141,523.75a3.416,3.416,0,0,1,2.448,1.119v-.911h2.031v8.084H1128.6v-1.359a3.264,3.264,0,0,1-1.025,1.127,2.654,2.654,0,0,1-1.566.471,3.427,3.427,0,0,1-1.8-.5,3.559,3.559,0,0,1-1.32-1.439,5.519,5.519,0,0,1,.007-4.592,3.7,3.7,0,0,1,1.359-1.479A3.576,3.576,0,0,1,1126.141,523.75Zm.416,1.983a1.836,1.836,0,0,0-1.1.327,2.243,2.243,0,0,0-.712.854,2.583,2.583,0,0,0-.255,1.139,2.3,2.3,0,0,0,.551,1.552,1.851,1.851,0,0,0,1.465.639,1.914,1.914,0,0,0,1.015-.285,2.2,2.2,0,0,0,.769-.809,2.5,2.5,0,0,0,.3-1.256v-1.152a3.7,3.7,0,0,0-.937-.736A2.277,2.277,0,0,0,1126.557,525.733Z" transform="translate(-1009.742 -492.516)"/><path class="a" d="M1559.734,609.053l-2.192,2.268h-1.631l1.68-2.271Z" transform="translate(-1381.553 -565.674)"/><path class="b" d="M369.409,304.677c-20.884,3.23-38.339,17.529-38.339,37.551a31.78,31.78,0,0,0,12.158,25.657,3.287,3.287,0,0,0,3.986.056,110.4,110.4,0,0,1,10.975-7.234c1.156-4.212,2.356-13.165-1.886-16.94-2.692-2.393-6.975-2.821-6.975-2.821l-.167-3.32,6.639,2.49-2.821-7.469H355.8s3.486,9.965,5.478,10.125,5.979-17.1,5.979-17.1h2.989l-1.993,4.982,4.194.167v1.826l-4.857,1.328a2.5,2.5,0,0,0-.332,2.49c.5,1.66,1.913,3.153,5.189,2.655s6.762-1.162,6.762-1.162v1.66s-10.346,2.44-12.282,5.979c-1.257,2.293-.854,6.984-.186,10.913a41.336,41.336,0,0,1,18.3-3.416c6.7.463,10.268,8.572,2.493,11.792-1.139.47,3.288-4.356-.578-6.07-3.274-1.453-7.9-.349-9.3,5.006-.774,2.965.084,5.053,1.779,6.521a7.747,7.747,0,0,0,8.622.924c10.345-5.372,16.918-15.232,16.918-28.146C404.982,323.1,390.906,301.352,369.409,304.677Zm-31.383,27.848c2.75-1.627,5.428-.552,6.631,2.42C341.931,336.567,339.232,335.518,338.027,332.526Zm3.458,11.054c-.642-3.132,1.247-5.311,4.448-5.478C346.576,341.2,344.706,343.408,341.484,343.579Zm5.96-12.054c-3.167.171-5.071-2.01-4.75-5.221,3.191-.171,5.065,2.024,4.75,5.214Zm4.323-1.472c-2.552-1.882-2.634-4.776-.345-7.049,2.568,1.9,2.616,4.782.345,7.042Zm4.332.5c-1.341-2.873-.03-5.453,3.069-6.356,1.344,2.893.007,5.449-3.069,6.349Zm4.7-11c3.149-.544,5.267,1.414,5.337,4.618-3.126.54-5.276-1.4-5.34-4.625Zm7.98,3.88c-1.5-2.793-.337-5.444,2.7-6.518,1.5,2.811.313,5.439-2.708,6.511Zm4.555,2.168c-.024-3.17,2.242-4.972,5.435-4.5.009,3.189-2.271,4.958-5.442,4.5Zm9.791,3.379c1.234,2.948-.2,5.453-3.307,6.236-1.24-2.93.169-5.459,3.3-6.244Zm-3.429,13.1c3.029-.938,5.409.712,5.879,3.906-3.062.931-5.414-.74-5.886-3.912Zm1.448-3.509c1.969-2.487,4.864-2.47,7.058-.1-2,2.5-4.883,2.446-7.065.1Z" transform="translate(-331.07 -304.338)"/></svg>